<svg width="72" height="72" viewBox="0 0 72 72" fill="none" xmlns="http://www.w3.org/2000/svg">
<g clip-path="url(#clip0_170_891)">
<path d="M6 27H30.069C32.22 24.153 35.343 22.098 38.952 21.336V21H6V15C6 13.347 7.347 12 9 12H54C55.656 12 57 13.347 57 15V21H45.024V21.333C48.642 22.089 51.774 24.147 53.931 27H57V47.295L63 49.536V15C63 10.038 58.962 6 54 6H48V0H42V6H21V0H15V6H9C4.038 6 0 10.038 0 15V60H9.348C9.786 57.864 10.716 55.827 12.096 54H6V27Z" fill="#6ED237"/>
<path d="M50.9993 51.4561V36.3211C50.9993 31.7731 47.7713 27.8191 43.4873 27.1231C40.8473 26.6911 38.1833 27.4321 36.1703 29.1451C34.1543 30.8581 32.9993 33.3571 32.9993 36.0031V58.692L29.9573 56.2681L29.9483 56.2801C26.3183 53.0641 20.7563 53.2891 17.4263 56.8531C14.0363 60.4771 14.2283 66.183 17.8163 69.543L20.3633 71.9971H29.0063L21.9503 65.1931C20.7413 64.0591 20.6783 62.1541 21.8123 60.9451C22.9373 59.7391 24.8363 59.682 26.0423 60.801C26.1023 60.8581 39.0023 71.13 39.0023 71.13V35.9941C39.0023 35.1121 39.3893 34.2781 40.0613 33.7081C40.7453 33.1291 41.6213 32.8951 42.5273 33.0361C43.9163 33.2641 45.0023 34.704 45.0023 36.3151V55.614L66.0023 63.459V71.994H72.0023V59.298L51.0023 51.453L50.9993 51.4561Z" fill="#6ED237"/>
</g>
<defs>
<clipPath id="clip0_170_891">
<rect width="72" height="72" fill="white"/>
</clipPath>
</defs>
</svg>
