<?xml version="1.0" encoding="UTF-8" standalone="no"?>
<!-- Created with Inkscape (http://www.inkscape.org/) -->

<svg
   width="468.58521"
   height="468.58521"
   viewBox="0 0 123.97983 123.97983"
   version="1.1"
   id="svg1"
   inkscape:version="1.3.2 (091e20e, 2023-11-25, custom)"
   sodipodi:docname="DHL partner logo.svg"
   xml:space="preserve"
   xmlns:inkscape="http://www.inkscape.org/namespaces/inkscape"
   xmlns:sodipodi="http://sodipodi.sourceforge.net/DTD/sodipodi-0.dtd"
   xmlns="http://www.w3.org/2000/svg"
   xmlns:svg="http://www.w3.org/2000/svg"><sodipodi:namedview
     id="namedview1"
     pagecolor="#ffffff"
     bordercolor="#000000"
     borderopacity="0.25"
     inkscape:showpageshadow="2"
     inkscape:pageopacity="0.0"
     inkscape:pagecheckerboard="0"
     inkscape:deskcolor="#d1d1d1"
     inkscape:document-units="px"
     inkscape:zoom="0.94163161"
     inkscape:cx="429.57351"
     inkscape:cy="224.61013"
     inkscape:window-width="2400"
     inkscape:window-height="1271"
     inkscape:window-x="-9"
     inkscape:window-y="-9"
     inkscape:window-maximized="1"
     inkscape:current-layer="layer1" /><defs
     id="defs1" /><g
     inkscape:label="Layer 1"
     inkscape:groupmode="layer"
     id="layer1"
     transform="translate(-42.991138,-69.122158)"><circle
       style="fill:#ffcb04;fill-opacity:1;stroke-width:0.264583;stroke-linecap:round;stroke-linejoin:round"
       id="path2"
       cx="104.98106"
       cy="131.11208"
       r="61.989918" /><path
       style="fill:#d71737;fill-opacity:1"
       d="m 61.893584,133.27915 c -2.591322,-0.23299 -2.371362,-0.75671 0.361404,-0.86049 1.24575,-0.0473 2.264721,-0.005 2.264382,0.0935 -6.24e-4,0.18134 -0.7919,1.05001 -0.879413,0.96542 -0.02599,-0.0251 -0.811854,-0.11441 -1.746373,-0.19844 z m 4.013909,-0.0205 c 0.03656,-0.0728 1.553052,-2.12658 3.369989,-4.56406 l 3.303522,-4.43177 h 4.567832 c 3.286896,0 4.567832,0.086 4.567832,0.30669 0,0.16868 -0.485996,0.95038 -1.07999,1.73712 -0.594376,0.78725 -1.014502,1.6011 -0.934346,1.80998 0.120599,0.31428 1.180475,0.37954 6.163273,0.37954 h 6.017628 l -1.31297,1.33807 c -0.79159,0.80671 -2.094786,1.72604 -3.281783,2.3151 l -1.968812,0.97704 -4.248896,0.0658 c -10.93615,0.16945 -15.224468,0.18824 -15.163279,0.0665 z m 25.598454,0.0568 c 1.67e-4,-0.0415 0.783735,-1.14282 1.741262,-2.44739 l 1.740959,-2.37195 h 4.886092 4.88609 l -0.76163,0.99219 c -0.4189,0.54571 -1.21912,1.61233 -1.77826,2.37029 l -1.01664,1.37809 -4.849087,0.0771 c -2.667,0.0424 -4.848953,0.0432 -4.848786,0.002 z m 14.023133,0.016 c 5e-5,-0.0327 0.79116,-1.13403 1.75803,-2.44739 l 1.75793,-2.38794 h 4.84661 4.84661 l -1.78825,2.39765 -1.78825,2.39765 -4.81639,0.0497 c -2.64901,0.0274 -4.81634,0.023 -4.81629,-0.01 z m 25.61745,-0.0728 c -8.52897,-0.12662 -8.94275,-0.15609 -9.65729,-0.68774 -1.0575,-0.78682 -1.118,-2.07184 -0.15159,-3.21938 l 0.72797,-0.86442 10.89032,0.0707 10.89032,0.0707 -1.6299,2.30756 c -0.89645,1.26915 -1.74897,2.34072 -1.89449,2.38125 -0.14552,0.0405 -4.27442,0.0142 -9.17534,-0.0586 z m 11.45903,-0.33072 c 0.21785,-0.40597 0.69021,-0.46303 3.83309,-0.46303 2.74971,0 3.5591,0.077 3.47509,0.33073 -0.0778,0.23504 -1.18686,0.36901 -3.83309,0.46302 -3.48674,0.12388 -3.70776,0.10285 -3.47509,-0.33072 z m -82.849308,-2.05051 c 0,-0.49976 0.176389,-0.52916 3.175,-0.52916 1.74625,0 3.175,0.0953 3.175,0.21166 0,0.65469 -0.791905,0.84667 -3.4925,0.84667 -2.681111,0 -2.8575,-0.0327 -2.8575,-0.52917 z m 84.137498,0.3175 c 0,-0.65469 0.7919,-0.84666 3.4925,-0.84666 2.68111,0 2.8575,0.0327 2.8575,0.52916 0,0.49977 -0.17639,0.52917 -3.175,0.52917 -1.74625,0 -3.175,-0.0952 -3.175,-0.21167 z m -84.252291,-1.8434 c -0.08238,-0.0824 -0.14979,-0.30854 -0.14979,-0.50257 0,-0.27896 0.86673,-0.35278 4.142048,-0.35278 h 4.142049 l -0.488724,0.54004 c -0.448799,0.49592 -0.774932,0.53697 -3.992258,0.50257 -1.926945,-0.0206 -3.570941,-0.10488 -3.653325,-0.18726 z m 85.575201,-0.0292 c 0,-0.60219 0.80856,-0.82614 2.98274,-0.82614 2.09357,0 2.33806,0.0501 2.25842,0.46303 -0.077,0.39928 -0.44391,0.4693 -2.66523,0.50863 -1.41676,0.0251 -2.57593,-0.0404 -2.57593,-0.14552 z m -22.22536,-2.108 c 9.5e-4,-0.23717 6.23431,-8.58132 6.48135,-8.67612 0.1552,-0.0596 2.49061,-0.0758 5.18979,-0.0361 l 4.90761,0.0722 -3.14958,4.23333 -3.14958,4.23334 -5.13998,0.13229 c -2.82699,0.0728 -5.13981,0.0912 -5.13961,0.041 z m -38.712183,-0.21263 c -0.09437,-0.0944 0.368595,-0.92857 1.028808,-1.85377 0.660213,-0.92521 1.127272,-1.8005 1.037908,-1.94509 -0.102679,-0.16614 -3.613698,-0.2629 -9.539572,-0.2629 -5.157401,0 -9.370335,-0.0893 -9.362076,-0.19843 0.0083,-0.10914 0.69768,-1.09141 1.532047,-2.18282 l 1.51703,-1.98437 h 10.837223 c 10.15375,0 10.895627,0.0318 11.763266,0.50368 2.187094,1.18958 2.980253,3.79171 1.648038,5.40677 -0.251577,0.30498 -0.807675,1.03467 -1.235772,1.62151 l -0.778358,1.067 h -4.138482 c -2.276165,0 -4.215692,-0.0772 -4.31006,-0.17158 z m 11.921458,-0.15915 c 0.143661,-0.1819 1.176493,-1.58089 2.295183,-3.10886 1.11869,-1.52796 2.471892,-3.34367 3.007122,-4.03489 l 0.97314,-1.25677 h 4.70157 c 2.58587,0 4.70158,0.0666 4.70158,0.14791 0,0.0814 -0.69274,1.06362 -1.53942,2.18281 -0.84668,1.1192 -1.62762,2.18373 -1.73541,2.36563 -0.15053,0.25402 0.3139,0.32879 2.00244,0.32238 l 2.19843,-0.008 1.84082,-2.50519 1.84082,-2.50519 h 4.83816 4.83816 l -0.85815,1.14765 c -0.47198,0.6312 -1.92971,2.59449 -3.2394,4.36285 l -2.38125,3.21521 -11.8725,0.003 c -9.461219,0.002 -11.819447,-0.0644 -11.611295,-0.32796 z"
       id="path1" /><path
       d="m 81.269515,146.74514 q 0,0.85637 -0.393086,1.57235 -0.393087,0.70194 -1.207337,1.13714 -0.81425,0.4352 -2.021587,0.4352 h -1.488113 v 3.53778 h -2.400635 v -9.85524 h 3.888748 q 1.179259,0 1.993509,0.40713 0.814251,0.40712 1.221376,1.1231 0.407125,0.71598 0.407125,1.64254 z M 77.465,147.98056 q 0.687902,0 1.024833,-0.32289 0.336931,-0.3229 0.336931,-0.91253 0,-0.58963 -0.336931,-0.91252 -0.336931,-0.32289 -1.024833,-0.32289 h -1.305608 v 2.47083 z m 11.188931,3.70624 h -3.678165 l -0.58963,1.74081 h -2.512945 l 3.565855,-9.85524 h 2.779683 l 3.565855,9.85524 h -2.541023 z m -0.617707,-1.85312 -1.221375,-3.60797 -1.207337,3.60797 z m 9.855231,3.59393 -2.049665,-3.72028 H 95.2662 v 3.72028 h -2.400635 v -9.85524 H 96.8947 q 1.165221,0 1.979471,0.40713 0.828289,0.40712 1.235419,1.1231 0.40712,0.70194 0.40712,1.57235 0,0.98272 -0.561551,1.75485 -0.547513,0.77213 -1.628501,1.09503 l 2.274282,3.90278 z M 95.2662,148.00864 h 1.488112 q 0.659824,0 0.982716,-0.3229 0.336932,-0.32289 0.336932,-0.91252 0,-0.56155 -0.336932,-0.88444 -0.322892,-0.3229 -0.982716,-0.3229 H 95.2662 Z m 13.84226,-4.43627 v 1.92332 h -2.61121 v 7.93192 h -2.40064 v -7.93192 h -2.61121 v -1.92332 z m 10.0237,9.85524 h -2.40063 l -4.0151,-6.0788 v 6.0788 h -2.40064 v -9.85524 h 2.40064 l 4.0151,6.10688 v -6.10688 h 2.40063 z m 4.14146,-7.93192 v 1.99351 h 3.21488 v 1.85312 h -3.21488 v 2.16198 h 3.63605 v 1.92331 h -6.03669 v -9.85524 h 6.03669 v 1.92332 z m 10.22025,7.93192 -2.04967,-3.72028 h -0.57559 v 3.72028 h -2.40063 v -9.85524 h 4.02913 q 1.16522,0 1.97947,0.40713 0.82829,0.40712 1.23542,1.1231 0.40712,0.70194 0.40712,1.57235 0,0.98272 -0.56155,1.75485 -0.54751,0.77213 -1.6285,1.09503 l 2.27429,3.90278 z m -2.62526,-5.41897 h 1.48812 q 0.65982,0 0.98271,-0.3229 0.33693,-0.32289 0.33693,-0.91252 0,-0.56155 -0.33693,-0.88444 -0.32289,-0.3229 -0.98271,-0.3229 h -1.48812 z"
       id="text2"
       style="font-weight:bold;font-size:14.0388px;font-family:Poppins;-inkscape-font-specification:'Poppins, Bold';fill:#d71737;stroke-width:0.751571;stroke-linecap:round;stroke-linejoin:round"
       aria-label="PARTNER" /></g></svg>
