<svg width="72" height="72" viewBox="0 0 72 72" fill="none" xmlns="http://www.w3.org/2000/svg">
<g clip-path="url(#clip0_170_914)">
<path d="M51.8171 30.912C53.2451 32.31 55.1231 33.009 56.9981 33.009C58.8731 33.009 60.7511 32.31 62.1791 30.912L67.6061 25.605C73.4531 19.755 73.4531 10.239 67.6061 4.392C64.7711 1.56 61.0031 0 56.9981 0C52.9931 0 49.2251 1.56 46.3901 4.392C40.5431 10.242 40.5431 19.758 46.4141 25.629L51.8171 30.912ZM50.6321 8.637C52.3331 6.936 54.5921 6 56.9981 6C59.4041 6 61.6631 6.936 63.3641 8.637C66.8711 12.147 66.8711 17.856 63.3881 21.342L57.9851 26.625C57.4391 27.159 56.5571 27.159 56.0141 26.625L50.6351 21.366C47.1281 17.856 47.1251 12.147 50.6321 8.637ZM14.9981 39C10.9931 39 7.22507 40.56 4.39007 43.392C-1.45693 49.242 -1.45693 58.758 4.41407 64.629L9.81707 69.912C11.2451 71.31 13.1231 72.009 14.9981 72.009C16.8731 72.009 18.7511 71.31 20.1791 69.912L25.6031 64.605C31.4531 58.755 31.4531 49.239 25.6031 43.392C22.7711 40.56 19.0031 39 14.9981 39ZM21.3851 60.342L15.9851 65.625C15.4391 66.159 14.5571 66.159 14.0141 65.625L8.63507 60.366C5.12807 56.856 5.12807 51.147 8.63507 47.637C10.3361 45.936 12.5951 45 15.0011 45C17.4071 45 19.6661 45.936 21.3641 47.634C24.8741 51.144 24.8741 56.853 21.3881 60.339L21.3851 60.342ZM34.0811 34.014C34.7171 32.622 35.6051 31.377 36.7181 30.315C37.9121 29.175 39.8171 29.217 40.9601 30.417C42.1031 31.614 42.0581 33.513 40.8581 34.659C40.3001 35.19 39.8591 35.814 39.5411 36.51C39.0371 37.614 37.9481 38.265 36.8111 38.265C36.3941 38.265 35.9711 38.178 35.5661 37.992C34.0601 37.305 33.3941 35.523 34.0841 34.017L34.0811 34.014ZM41.9981 69C41.9981 70.656 40.6541 72 38.9981 72H32.9981C31.3421 72 29.9981 70.656 29.9981 69C29.9981 67.344 31.3421 66 32.9981 66H38.9981C40.6541 66 41.9981 67.344 41.9981 69ZM62.8601 51.948C62.4431 51.948 62.0171 51.861 61.6121 51.675C60.6341 51.228 59.5841 51 58.4921 51H56.9951C55.3391 51 53.9951 49.656 53.9951 48C53.9951 46.344 55.3391 45 56.9951 45H58.4951C60.4541 45 62.3411 45.411 64.1081 46.221C65.6141 46.908 66.2771 48.69 65.5871 50.196C65.0831 51.297 63.9941 51.948 62.8571 51.948H62.8601ZM47.9981 48C47.9981 49.656 46.6571 51 44.9981 51C42.3161 51 39.6821 50.088 37.5791 48.432C36.2771 47.406 36.0521 45.519 37.0781 44.22C38.1041 42.918 39.9941 42.693 41.2901 43.719C42.3551 44.556 43.6361 45 44.9951 45C46.6511 45 47.9951 46.344 47.9951 48H47.9981ZM71.9981 58.5C71.9981 61.104 71.2541 63.627 69.8531 65.802C69.2801 66.69 68.3141 67.176 67.3301 67.176C66.7721 67.176 66.2111 67.023 65.7071 66.696C64.3151 65.799 63.9131 63.942 64.8131 62.55C65.5901 61.347 66.0011 59.943 66.0011 58.497C66.0011 56.841 67.3451 55.497 69.0011 55.497C70.6601 55.497 72.0011 56.841 72.0011 58.497L71.9981 58.5ZM59.9981 69C59.9981 70.656 58.6541 72 56.9981 72H50.9981C49.3421 72 47.9981 70.656 47.9981 69C47.9981 67.344 49.3421 66 50.9981 66H56.9981C58.6541 66 59.9981 67.344 59.9981 69ZM52.4981 15C52.4981 12.516 54.5141 10.5 56.9981 10.5C59.4821 10.5 61.4981 12.516 61.4981 15C61.4981 17.484 59.4821 19.5 56.9981 19.5C54.5141 19.5 52.4981 17.484 52.4981 15ZM19.4981 54C19.4981 56.484 17.4821 58.5 14.9981 58.5C12.5141 58.5 10.4981 56.484 10.4981 54C10.4981 51.516 12.5141 49.5 14.9981 49.5C17.4821 49.5 19.4981 51.516 19.4981 54Z" fill="#6ED237"/>
</g>
<defs>
<clipPath id="clip0_170_914">
<rect width="72" height="72" fill="white"/>
</clipPath>
</defs>
</svg>
