<?xml version="1.0" encoding="UTF-8" standalone="no"?>
<svg
   id="Layer_1"
   data-name="Layer 1"
   viewBox="0 0 30 30"
   version="1.1"
   sodipodi:docname="shipping-timed_11659919.svg"
   width="30"
   height="30"
   inkscape:version="1.3.2 (091e20e, 2023-11-25, custom)"
   xmlns:inkscape="http://www.inkscape.org/namespaces/inkscape"
   xmlns:sodipodi="http://sodipodi.sourceforge.net/DTD/sodipodi-0.dtd"
   xmlns="http://www.w3.org/2000/svg"
   xmlns:svg="http://www.w3.org/2000/svg">
  <defs
     id="defs1" />
  <sodipodi:namedview
     id="namedview1"
     pagecolor="#ffffff"
     bordercolor="#000000"
     borderopacity="0.25"
     inkscape:showpageshadow="2"
     inkscape:pageopacity="0.0"
     inkscape:pagecheckerboard="0"
     inkscape:deskcolor="#d1d1d1"
     inkscape:zoom="21.354167"
     inkscape:cx="11.988293"
     inkscape:cy="12.011707"
     inkscape:window-width="2400"
     inkscape:window-height="1271"
     inkscape:window-x="-9"
     inkscape:window-y="-9"
     inkscape:window-maximized="1"
     inkscape:current-layer="Layer_1" />
  <path
     d="M 4.1331188,15.515197 C 10.394824,18.280398 16.429013,12.794999 14.698887,6.594548 14.016337,4.1456198 12.102448,2.2329807 9.6535199,1.550431 3.4543194,-0.17969484 -2.0310796,5.8544941 0.73412152,12.114949 1.3991699,13.621309 2.6267592,14.848898 4.1331188,15.513947 Z M 6.2495227,3.749341 H 8.7497041 V 8.2321671 L 11.508655,10.991118 9.7410262,12.758746 6.2495227,9.2672424 Z M 30.00125,14.375114 c 0,-3.791526 -3.085224,-6.8755002 -6.8755,-6.8755002 h -1.875136 v -0.6250455 0 c 0,-2.4126755 -1.962643,-4.3753183 -4.375319,-4.3753183 h -1.575114 c 0.893815,1.1138311 1.547612,2.4239264 1.900138,3.8540304 0.176263,0.110008 0.301272,0.2975217 0.301272,0.5212879 0,0 0,0 0,0 V 22.499455 H 3.7493409 v -3.750273 0 -0.733803 C 2.2967352,17.427836 1.0178922,16.506519 -9.3195715e-4,15.348935 v 3.401497 c 0,0 0,0 0,0 v 7.499296 H 3.8218461 c -0.042503,0.202514 -0.072505,0.41003 -0.072505,0.625045 0,1.726376 1.3988517,3.125227 3.1252273,3.125227 1.7263756,0 3.1252269,-1.398851 3.1252269,-3.125227 0,-0.215015 -0.030002,-0.422531 -0.072505,-0.625045 H 20.071778 c -0.0425,0.202514 -0.07251,0.41003 -0.07251,0.625045 0,1.726376 1.398852,3.125227 3.125228,3.125227 1.726375,0 3.125227,-1.398851 3.125227,-3.125227 0,-0.215015 -0.03,-0.422531 -0.0725,-0.625045 H 30 V 14.373864 Z m -6.8755,-3.125228 c 1.723875,0 3.125227,1.402603 3.125227,3.125228 v 3.125227 h -5.000363 v -6.250455 z"
     id="path1"
     style="fill:#6cd236;fill-opacity:1;stroke-width:1.25009" />
</svg>
