<svg width="72" height="72" viewBox="0 0 72 72" fill="none" xmlns="http://www.w3.org/2000/svg">
<g clip-path="url(#clip0_170_905)">
<path d="M51 54C51 51.6131 50.0518 49.3239 48.364 47.636C46.6761 45.9482 44.3869 45 42 45C39.6131 45 37.3239 45.9482 35.636 47.636C33.9482 49.3239 33 51.6131 33 54H39C39 53.2044 39.3161 52.4413 39.8787 51.8787C40.4413 51.3161 41.2044 51 42 51C42.7956 51 43.5587 51.3161 44.1213 51.8787C44.6839 52.4413 45 53.2044 45 54C45 55.5 42.45 57.414 40.2 59.1C36.825 61.632 33 64.5 33 69V72H51V66H41.13C41.943 65.292 42.897 64.578 43.8 63.9C47.175 61.368 51 58.5 51 54Z" fill="#6ED237"/>
<path d="M66 57H60V45H54V57C54 58.5913 54.6321 60.1174 55.7574 61.2426C56.8826 62.3679 58.4087 63 60 63H66V72H72V45H66V57Z" fill="#6ED237"/>
<path d="M39 18H33V33H21V39H39V18Z" fill="#6ED237"/>
<path d="M66.0017 6.00005V16.1221C62.7807 11.2507 58.4225 7.23641 53.3034 4.42584C48.1842 1.61526 42.4579 0.0928249 36.6189 -0.0100413C30.7798 -0.112907 25.0034 1.20689 19.7885 3.83541C14.5735 6.46393 10.0766 10.3222 6.68599 15.0771C3.2954 19.832 1.11302 25.3407 0.327236 31.1275C-0.458543 36.9144 0.175897 42.8055 2.17578 48.2924C4.17567 53.7792 7.48091 58.6969 11.8062 62.6209C16.1314 66.5448 21.3467 69.3572 27.0017 70.815V64.6171C22.3377 63.1663 18.0984 60.5986 14.6521 57.1371C11.2059 53.6757 8.65699 49.425 7.22685 44.7546C5.79671 40.0842 5.52859 35.1352 6.44578 30.3375C7.36298 25.5399 9.43775 21.0388 12.4898 17.2253C15.5419 13.4117 19.479 10.4011 23.9591 8.45496C28.4391 6.5088 33.3266 5.68598 38.1969 6.05798C43.0672 6.42998 47.7731 7.98556 51.9056 10.5896C56.0381 13.1936 59.4722 16.7672 61.9097 21H51.0017V27H66.0017C67.593 27 69.1192 26.3679 70.2444 25.2427C71.3696 24.1175 72.0017 22.5913 72.0017 21V6.00005H66.0017Z" fill="#6ED237"/>
</g>
<defs>
<clipPath id="clip0_170_905">
<rect width="72" height="72" fill="white"/>
</clipPath>
</defs>
</svg>
