<svg width="72" height="72" viewBox="0 0 72 72" fill="none" xmlns="http://www.w3.org/2000/svg">
<path d="M57 16H50.697C49.302 9.163 43.245 4 36 4H15C6.729 4 0 10.729 0 19V46C0 51.643 3.927 56.356 9.183 57.631C9.069 58.243 9 58.867 9 59.5C9 65.29 13.71 70 19.5 70C25.29 70 30 65.29 30 59.5C30 58.993 29.949 58.495 29.877 58H42.123C42.051 58.495 42 58.993 42 59.5C42 65.29 46.71 70 52.5 70C58.29 70 63 65.29 63 59.5C63 58.867 62.931 58.243 62.817 57.631C68.073 56.356 72 51.643 72 46V31C72 22.729 65.271 16 57 16ZM66 31V34H51V22H57C61.962 22 66 26.038 66 31ZM6 46V19C6 14.038 10.038 10 15 10H36C40.962 10 45 14.038 45 19V52H12C8.691 52 6 49.309 6 46ZM24 59.5C24 61.981 21.981 64 19.5 64C17.019 64 15 61.981 15 59.5C15 58.93 15.117 58.432 15.279 58H23.721C23.883 58.432 24 58.93 24 59.5ZM52.5 64C50.019 64 48 61.981 48 59.5C48 58.93 48.117 58.432 48.279 58H56.721C56.883 58.432 57 58.93 57 59.5C57 61.981 54.981 64 52.5 64ZM60 52H51V40H66V46C66 49.309 63.309 52 60 52ZM12.879 33.424C11.706 32.251 11.706 30.355 12.879 29.182C14.052 28.009 15.948 28.009 17.121 29.182L21.327 33.388C22.365 34.426 24.057 34.426 25.095 33.388L33.852 24.403C35.01 23.218 36.915 23.197 38.094 24.349C39.282 25.507 39.303 27.406 38.148 28.594L29.364 37.603C27.66 39.307 25.428 40.159 23.202 40.159C20.976 40.159 18.768 39.316 17.085 37.63L12.879 33.424Z" fill="#6ED237"/>
</svg>
