<?xml version="1.0" encoding="UTF-8" standalone="no"?>
<svg
   id="Layer_1"
   data-name="Layer 1"
   viewBox="0 0 30 30"
   version="1.1"
   sodipodi:docname="shipping-fast_11659928.svg"
   inkscape:version="1.3.2 (091e20e, 2023-11-25, custom)"
   width="30"
   height="30"
   xmlns:inkscape="http://www.inkscape.org/namespaces/inkscape"
   xmlns:sodipodi="http://sodipodi.sourceforge.net/DTD/sodipodi-0.dtd"
   xmlns="http://www.w3.org/2000/svg"
   xmlns:svg="http://www.w3.org/2000/svg">
  <defs
     id="defs1" />
  <sodipodi:namedview
     id="namedview1"
     pagecolor="#ffffff"
     bordercolor="#000000"
     borderopacity="0.25"
     inkscape:showpageshadow="2"
     inkscape:pageopacity="0.0"
     inkscape:pagecheckerboard="0"
     inkscape:deskcolor="#d1d1d1"
     inkscape:zoom="15.099676"
     inkscape:cx="11.987012"
     inkscape:cy="12.020125"
     inkscape:window-width="2400"
     inkscape:window-height="1271"
     inkscape:window-x="-9"
     inkscape:window-y="-9"
     inkscape:window-maximized="1"
     inkscape:current-layer="Layer_1" />
  <path
     d="M 30,13.750001 C 30,10.30375 27.19625,7.5 23.75,7.5 h -2.5 V 6.2499999 C 21.25,4.1824999 19.5675,2.5 17.500001,2.5 H 15 V 5 h 2.500001 C 18.19,5 18.75,5.5612499 18.75,6.2499999 V 22.5 H 2.4999998 v -5 h -2.5 V 25 H 2.5462499 C 2.5162502,25.20625 2.5,25.41375 2.5,25.625 2.5,28.0375 4.4625,30 6.8750001,30 9.2875004,30 11.25,28.0375 11.25,25.625 11.25,25.41375 11.23375,25.20625 11.20375,25 h 7.5925 c -0.03,0.20625 -0.04625,0.41375 -0.04625,0.625 0,2.4125 1.962501,4.375 4.375,4.375 2.4125,0 4.375001,-1.9625 4.375001,-4.375 0,-0.21125 -0.01625,-0.41875 -0.04625,-0.625 H 30 Z M 8.7500002,25.625 c 0,1.03375 -0.8412504,1.875 -1.8750003,1.875 -1.0337501,0 -1.8750001,-0.84125 -1.8750001,-1.875 0,-0.23625 0.04625,-0.445 0.11375,-0.625 h 3.5237504 c 0.0675,0.18 0.11375,0.38875 0.11375,0.625 z M 23.75,10 c 2.0675,0 3.750001,1.6825 3.750001,3.750001 V 15 H 21.25 V 10 Z M 25,25.625 c 0,1.03375 -0.84125,1.875 -1.875,1.875 -1.03375,0 -1.875,-0.84125 -1.875,-1.875 0,-0.23625 0.04625,-0.445 0.11375,-0.625 h 3.52375 c 0.0675,0.18 0.11375,0.38875 0.11375,0.625 z M 21.25,22.5 v -5 h 6.250001 v 5 z M 12.500001,5 H -2e-7 V 2.5 H 12.500001 Z M 10,10 H -2e-7 V 7.5 H 10 Z m -2.5000002,5 h -7.5 v -2.5 h 7.5 z"
     id="path1"
     style="fill:#6cd236;fill-opacity:1;stroke:none;stroke-width:1.25;stroke-opacity:1" />
</svg>
