<?xml version="1.0" encoding="UTF-8" standalone="no"?>
<!-- Created with Inkscape (http://www.inkscape.org/) -->

<svg
   version="1.1"
   id="svg1"
   width="1060.0001"
   height="209.27859"
   viewBox="0 0 1060.0001 209.27859"
   sodipodi:docname="singapore-city-skyline_1284-52267.jpg"
   xmlns:inkscape="http://www.inkscape.org/namespaces/inkscape"
   xmlns:sodipodi="http://sodipodi.sourceforge.net/DTD/sodipodi-0.dtd"
   xmlns="http://www.w3.org/2000/svg"
   xmlns:svg="http://www.w3.org/2000/svg">
  <defs
     id="defs1" />
  <sodipodi:namedview
     id="namedview1"
     pagecolor="#ffffff"
     bordercolor="#000000"
     borderopacity="0.25"
     inkscape:showpageshadow="2"
     inkscape:pageopacity="0.0"
     inkscape:pagecheckerboard="0"
     inkscape:deskcolor="#d1d1d1" />
  <g
     inkscape:groupmode="layer"
     inkscape:label="Image"
     id="g1"
     transform="translate(-0.90289611,-32.77935)">
    <path
       style="fill:#cccccc"
       d="m 0.90289611,234.55792 v -7.5 h 18.50000089 18.5 v -6.42327 c 0,-5.4746 -0.387814,-6.88417 -2.625791,-9.54385 -1.444185,-1.71632 -4.369185,-4.00999 -6.5,-5.09705 -2.130815,-1.08706 -3.874209,-2.20816 -3.874209,-2.49134 0,-0.28317 0.957228,-0.003 2.127174,0.62357 1.169946,0.62614 2.407446,0.75447 2.75,0.28519 1.02089,-1.39858 3.954019,-0.95063 5.788702,0.88405 2.341169,2.34117 1.001568,3.3436 -1.823715,1.3647 -1.257945,-0.8811 -2.703593,-1.602 -3.21255,-1.602 -0.508958,0 0.60367,1.04522 2.472506,2.32271 3.602973,2.4629 5.348076,1.76864 4.267921,-1.69794 -0.393253,-1.26208 -0.206657,-1.64183 0.570678,-1.16141 0.635241,0.3926 1.081632,1.46145 0.99198,2.37523 -0.308578,3.14516 0.06929,5.16141 0.967304,5.16141 0.495,0 0.9,-1.605 0.9,-3.56667 0,-1.96166 0.27,-3.83666 0.6,-4.16666 0.33,-0.33 0.602306,1.3875 0.605123,3.81666 l 0.0051,4.41667 2.418636,-3.99593 c 1.34403,-2.22054 3.45219,-4.24034 4.744876,-4.54601 2.125934,-0.50271 2.326241,-1.08434 2.326241,-6.75464 0,-6.05508 0.06424,-6.20454 2.666667,-6.20399 1.466666,3.1e-4 2.864517,-0.56193 3.106336,-1.24943 0.241818,-0.6875 0.226026,1.07127 -0.03509,3.90839 -0.407749,4.43028 -0.162859,5.41833 1.73496,7 1.215348,1.01288 2.569691,2.75466 3.009653,3.87061 0.914894,2.32056 5.017498,3.09317 5.017498,0.9449 0,-1.4396 6.658769,-6.49796 8.482135,-6.44349 0.559826,0.0167 0.2209,0.49438 -0.753167,1.06146 -0.974068,0.56708 -1.529228,1.4223 -1.233688,1.90049 0.295539,0.47819 0.01047,1.19507 -0.633477,1.59305 -0.731227,0.45192 -0.902922,0.29014 -0.457295,-0.4309 0.849469,-1.37447 -0.335626,-1.48386 -2.33935,-0.21594 -1.066186,0.67466 -1.547026,3.88237 -1.871471,12.48469 l -0.436629,11.57674 h 5.7487 5.748701 l -0.480437,-5 c -0.26424,-2.75 -0.06994,-5 0.431788,-5 0.501723,0 0.634109,0.45 0.29419,1 -0.374881,0.60657 0.880549,0.95345 3.190983,0.88169 3.762797,-0.11688 3.772614,-0.12758 0.809017,-0.88169 -2.109834,-0.53686 -0.386172,-0.79848 5.809017,-0.88169 4.844959,-0.0651 8.60056,0.21919 8.34579,0.63169 -0.25478,0.4125 1.51866,0.86585 3.940976,1.00744 2.4615,0.14388 4.40421,-0.18695 4.40421,-0.75 0,-0.55409 0.47656,-1.00744 1.05902,-1.00744 0.58246,0 0.74144,0.5625 0.35329,1.25 -0.56457,1 -0.43638,1 0.64099,0 0.74068,-0.6875 1.8192,-1.24311 2.3967,-1.23469 0.5775,0.008 0.375,0.45153 -0.45,0.98469 -1.05323,0.68065 0.44552,0.97394 5.03189,0.98469 6.34621,0.0149 6.53812,-0.0599 6.75092,-2.63112 0.12046,-1.45554 -0.29755,-3.26886 -0.92891,-4.02962 -0.83724,-1.0088 -0.8553,-2.02546 -0.0667,-3.75618 0.67696,-1.48578 1.08658,-11.28902 1.09558,-26.22038 0.009,-14.57038 -0.32805,-23.06936 -0.86585,-21.84739 -0.48413,1.1 -1.83834,4.925 -3.00936,8.5 -8.37652,25.57265 -9.85366,30.43996 -9.44075,31.10806 0.25621,0.41456 0.0436,1.01473 -0.47256,1.3337 -0.51612,0.31898 -1.9337,3.61258 -3.15019,7.3191 -2.65784,8.09822 -2.82933,8.42807 -4.0042,7.70196 -0.53035,-0.32778 -0.28862,-2.08563 0.56909,-4.13844 1.90329,-4.5552 1.92378,-4.47109 -0.91579,-3.7584 -5.577136,1.39977 -9.041486,-4.73768 -4.478336,-7.93384 2.31738,-1.62315 4.704946,-1.19623 6.624866,1.1846 0.68181,0.84549 1.3911,1.34511 1.57619,1.11026 0.1851,-0.23485 3.65662,-10.552 7.71451,-22.927 5.00914,-15.27598 7.41076,-24.15804 7.4801,-27.66414 0.11936,-6.03544 1.64837,-8.33586 5.54055,-8.33586 4.09238,0 6.21939,2.57977 5.69885,6.91193 -0.23713,1.97344 0.14189,5.38807 0.84226,7.58807 0.70037,2.2 4.25676,13.28895 7.90308,24.6421 l 6.62968,20.6421 2.48354,-2.48354 c 2.27041,-2.27041 2.67268,-2.35858 4.68755,-1.0275 4.62866,3.05783 2.73951,9.38394 -2.48997,8.33804 -1.5433,-0.30866 -2.80601,-0.1896 -2.80601,0.26458 0,2.17796 2.5357,7.79916 4.16881,9.24152 1.15192,1.01736 1.83119,2.98615 1.83119,5.30749 v 3.69021 l 4.11723,-0.3075 4.11724,-0.3075 2.41756,-8 c 1.32966,-4.4 3.21036,-11.15 4.17934,-15 1.23952,-4.92495 2.19262,-6.93276 3.2152,-6.77319 0.79939,0.12475 2.46593,-1.33144 3.70343,-3.23597 2.62701,-4.04302 2.90249,-5.28618 0.67857,-3.06227 -1.96721,1.96722 -5.80071,2.03289 -7.38289,0.12647 -1.55377,-1.87218 -0.98651,-5.57461 1.04954,-6.85017 2.36857,-1.48387 6.66703,-0.0293 7.47965,2.53103 l 0.70817,2.23125 0.85002,-2.29782 c 0.46751,-1.2638 1.29453,-2.0231 1.83781,-1.68733 1.63587,1.01102 4.75691,-1.26127 5.43315,-3.95562 0.65473,-2.60862 2.01392,-3.27718 3.09765,-1.52368 0.9832,1.59085 4.49833,-0.78305 4.49833,-3.03788 0,-1.08065 0.675,-1.96482 1.5,-1.96482 0.825,0 1.5,0.675 1.5,1.5 0,2.42235 3.81538,1.80934 4.18045,-0.67167 0.45972,-3.12427 2.81955,-3.56638 2.81955,-0.52824 0,1.8371 0.63814,2.58874 2.5,2.94466 1.97345,0.37725 2.5,0.0683 2.5,-1.46676 0,-2.56954 2.40836,-1.74135 2.80847,0.96579 0.33354,2.25673 3.42882,4.04434 4.00579,2.31345 0.62853,-1.8856 3.03236,-1.11827 3.73663,1.19277 1.02251,3.35532 3.64374,6.05312 4.51368,4.64552 0.95293,-1.54187 2.93543,-0.21589 2.93543,1.96333 0,2.62876 5.05959,9.88964 6.79915,9.75727 0.95776,-0.0729 1.84137,1.18702 2.37323,3.38388 1.41648,5.85088 4.20853,14.00194 4.78471,13.9684 1.11671,-0.065 5.69371,-4.61601 6.34235,-6.30634 0.37059,-0.96573 1.24232,-1.64655 1.93718,-1.51292 2.68014,0.51541 5.63969,-1.35558 6.62778,-4.19 1.07778,-3.09181 3.13557,-4.04939 3.13557,-1.45914 0,2.39893 2.80064,1.7339 4.66209,-1.10704 1.51627,-2.31412 1.84023,-2.42648 2.8833,-1 1.58168,2.16307 3.16124,2.02373 4.45461,-0.39296 1.2591,-2.35265 3,-2.6428 3,-0.5 0,0.93333 0.94444,1.5 2.5,1.5 1.55556,0 2.5,-0.56667 2.5,-1.5 0,-0.825 0.675,-1.5 1.5,-1.5 0.825,0 1.5,0.675 1.5,1.5 0,0.93333 0.94444,1.5 2.5,1.5 1.375,0 2.3875,-0.50625 2.25,-1.125 -0.4612,-2.07539 2.07221,-2.01053 2.73253,0.07 0.7523,2.37029 4.03271,2.7607 4.86969,0.57955 0.31141,-0.81152 -0.0401,-2.94902 -0.78113,-4.75 -2.05274,-4.9889 -2.8272,-11.27691 -2.06842,-16.79388 0.54912,-3.99265 1.06312,-4.98062 2.59117,-4.98062 1.2124,0 1.90616,0.69814 1.90616,1.91821 0,3.52342 1.17947,5.08161 3.85699,5.09544 5.47762,0.0283 6.69886,0.98298 9.34127,7.3023 1.90409,4.55365 2.47091,7.37046 2.14991,10.68405 -1.04845,10.82301 -2.00776,11.34477 -6.43508,3.5 -1.79013,-3.17194 -3.80435,-5.50648 -4.75855,-5.51531 -1.43364,-0.0133 -1.45427,-0.14479 -0.15454,-0.98474 0.90129,-0.58246 1.02463,-0.97549 0.30902,-0.98469 -1.74817,-0.0225 -2.6967,1.99701 -1.50003,3.19368 0.56909,0.56909 0.76841,1.72871 0.44293,2.57691 -0.38585,1.00549 -0.18863,1.29302 0.56669,0.82621 0.75392,-0.46595 0.95296,-0.18041 0.56997,0.81765 -0.33674,0.87752 0.73771,3.33703 2.51145,5.74894 1.70498,2.31842 3.09997,3.8518 3.09997,3.40752 0,-0.44428 0.7875,0.12326 1.75,1.26121 4.32221,5.1101 19.20065,8.22722 27.98398,5.86281 2.87868,-0.77493 5.46618,-1.17674 5.75,-0.89293 0.28381,0.28381 0.51602,2.95352 0.51602,5.93269 0,3.89287 0.35165,5.29735 1.25,4.99254 0.81076,-0.2751 1.26417,-2.56825 1.29034,-6.52599 0.038,-5.74762 0.24303,-6.26484 3.53181,-8.9092 5.5264,-4.44353 8.39991,-7.65 7.21083,-8.04636 -0.63096,-0.21032 -0.18236,-1.3195 1.0625,-2.62712 1.85015,-1.9434 5.12121,-2.73234 23.15452,-5.58458 11.55,-1.82681 21.40655,-3.55446 21.90344,-3.83923 1.17452,-0.67311 8.02385,-0.67095 9.19312,0.003 1.76056,1.01461 17.49129,3.03255 18.19188,2.33365 0.39136,-0.39041 1.18993,-10.68561 1.77461,-22.87823 0.98622,-20.56609 0.77858,-33.00068 -1.1258,-67.41838 -0.66553,-12.028191 -0.6394,-12.250101 1.44247,-12.250101 1.16615,0 2.12028,-0.59247 2.12028,-1.3166 0,-0.87019 -3.19816,-1.91897 -9.43223,-3.09313 -11.17291,-2.10437 -16.06777,-4.26434 -16.06777,-7.09027 0,-1.75491 0.76591,-2.03648 6.25,-2.29771 4.66095,-0.22203 6.25,-0.66696 6.25,-1.75 0,-0.94699 1.04381,-1.45229 3,-1.45229 2.53333,0 3,-0.38889 3,-2.5 0,-2.29629 0.36667,-2.5 4.5,-2.5 3.33333,0 4.5,-0.38889 4.5,-1.5 0,-0.825 0.5625,-1.52939 1.25,-1.56532 1.16113,-0.0607 21.32944,-0.029 23,0.0361 0.4125,0.0161 0.75,0.67836 0.75,1.47174 0,0.98216 1.35629,1.54063 4.25,1.75 3.53302,0.25562 4.30391,0.68707 4.56955,2.55749 0.43449,3.05932 4.25894,3.1669 3.91866,0.11024 -0.13102,-1.17688 0.32429,-2.33938 1.01179,-2.58334 0.79189,-0.281 1.25,0.5032 1.25,2.13977 0,1.94291 0.5114,2.58333 2.06286,2.58333 1.54295,0 1.98401,-0.54365 1.75,-2.15704 -0.17207,-1.18638 0.24964,-2.34888 0.93714,-2.58334 0.78743,-0.26853 1.25,0.5297 1.25,2.15705 0,1.94291 0.5114,2.58333 2.06286,2.58333 1.56529,0 1.98739,-0.5427 1.75,-2.25 -0.20473,-1.47238 0.20555,-2.25 1.18714,-2.25 0.98159,0 1.39187,0.77762 1.18714,2.25 -0.23997,1.72581 0.18238,2.25 1.81286,2.25 1.63048,0 2.05283,-0.52419 1.81286,-2.25 -0.20473,-1.47238 0.20555,-2.25 1.18714,-2.25 0.98159,0 1.39187,0.77762 1.18714,2.25 -0.23739,1.7073 0.18471,2.25 1.75,2.25 1.55146,0 2.06286,-0.64042 2.06286,-2.58333 0,-1.62735 0.46257,-2.42558 1.25,-2.15705 0.6875,0.23446 1.10921,1.39696 0.93714,2.58334 -0.23656,1.63102 0.20553,2.15704 1.81286,2.15704 1.63048,0 2.05283,-0.52419 1.81286,-2.25 -0.20473,-1.47238 0.20555,-2.25 1.18714,-2.25 0.98159,0 1.39187,0.77762 1.18714,2.25 -0.25489,1.83315 0.16549,2.25 2.26905,2.25 2.28882,0 2.50697,-0.29859 1.92173,-2.63037 -0.50143,-1.99785 -0.32566,-2.5124 0.73095,-2.13977 0.76512,0.26983 1.28394,1.4535 1.15292,2.63037 -0.18711,1.68075 0.29965,2.13977 2.26905,2.13977 2.20821,0 2.42852,-0.31374 1.84708,-2.63037 -0.50143,-1.99785 -0.32566,-2.5124 0.73095,-2.13977 0.76512,0.26983 1.28394,1.4535 1.15292,2.63037 -0.18711,1.68075 0.29965,2.13977 2.26905,2.13977 2.20821,0 2.42852,-0.31374 1.84708,-2.63037 -0.50143,-1.99785 -0.32566,-2.5124 0.73095,-2.13977 0.76512,0.26983 1.28394,1.4535 1.15292,2.63037 -0.18711,1.68075 0.29965,2.13977 2.26905,2.13977 2.17808,0 2.42451,-0.32971 1.87697,-2.5113 -0.51407,-2.04819 -0.32767,-2.39518 1.01075,-1.88158 1.09275,0.41933 1.43354,1.28352 1.01998,2.58654 -0.53043,1.67123 -0.20642,1.90934 2.2202,1.63157 1.63235,-0.18685 2.89855,-0.96345 2.97591,-1.82523 0.0741,-0.825 0.18656,-2.5125 0.25,-3.75 0.11289,-2.20192 0.37175,-2.25 12.11535,-2.25 h 12 v 4 c 0,2.91119 0.41349,4 1.51905,4 1.14106,0 1.35478,-0.65453 0.85887,-2.63037 -0.50143,-1.99785 -0.32566,-2.5124 0.73095,-2.13977 0.76512,0.26983 1.28394,1.4535 1.15292,2.63037 -0.14857,1.33453 0.32184,2.13977 1.25,2.13977 0.81852,0 1.48821,0.675 1.48821,1.5 0,1.04762 1.05556,1.5 3.5,1.5 3.32583,0 3.5,0.17223 3.5,3.46105 0,4.63778 -3.15115,7.53895 -8.18856,7.53895 -4.24009,0 -5.52516,2.61751 -1.56144,3.18045 l 2.25,0.31955 0.20881,49.500001 c 0.11484,27.225 0.22734,51.23935 0.25,53.36522 l 0.0412,3.86523 5.75,-0.79239 c 3.1625,-0.43581 6.875,-0.86403 8.25,-0.95159 1.375,-0.0876 3.175,-0.41947 4,-0.73758 0.825,-0.31811 3.24326,-0.8225 5.3739,-1.12087 2.13065,-0.29837 4.02495,-0.69353 4.20956,-0.87814 0.1846,-0.18461 0.41738,-8.11159 0.51727,-17.61551 0.2172,-20.66432 0.6561,-23.51636 3.6863,-23.95392 1.21713,-0.17575 2.21297,-0.78552 2.21297,-1.35504 0,-0.60342 1.65415,-0.87773 3.96438,-0.65742 l 3.96437,0.37807 0.28563,-8.52303 0.28561,-8.52303 6.25,-0.29772 c 4.66095,-0.22202 6.25,-0.66695 6.25,-1.75 0,-0.79875 -0.45,-1.45228 -1,-1.45228 -0.55,0 -1,-0.675 -1,-1.5 0,-1.21569 1.61111,-1.5 8.5,-1.5 h 8.5 V 92.258009 57.458089 l 5.8102,-1.20008 c 7.35291,-1.51872 13.02669,-1.51872 20.3796,0 l 5.8102,1.20008 v 28.29992 c 0,24.488821 0.202,28.299921 1.5,28.299921 0.825,0 1.5,-0.8625 1.5,-1.91666 0,-1.05417 0.5625,-2.12038 1.25,-2.36935 0.99861,-0.36164 0.9969,-0.88119 -0.008,-2.58333 -1.25668,-2.12681 -1.2368,-2.13066 11.00842,-2.13066 h 12.26737 l 0.2954,8.18334 c 0.16247,4.50084 0.52252,8.55084 0.80012,9 0.2776,0.44916 3.85317,0.81666 7.94571,0.81666 h 7.44098 v 22 c 0,25.27546 0.46018,26.36659 6.53712,15.5 1.99926,-3.575 4.00373,-6.5 4.45438,-6.5 0.45066,0 2.51106,2.8919 4.57869,6.42645 2.06762,3.53455 4.58518,6.64242 5.59456,6.90638 1.04312,0.27278 1.83525,1.38358 1.83525,2.57355 0,1.89088 0.57774,2.09362 5.96617,2.09362 h 5.96617 l 0.28383,10.75 0.28383,10.75 2.73354,0.31483 2.73355,0.31484 0.26645,-26.81484 0.26646,-26.81483 h 12.5 12.5 l 0.26366,32.75 c 0.21289,26.44287 0.51967,32.75 1.59295,32.75 1.08517,0 1.45154,-11.89086 1.99501,-64.75 0.82384,-80.128761 0.86392,-81.488511 2.4174,-82.006341 0.67704,-0.22568 1.23098,-1.04782 1.23098,-1.82699 0,-0.77917 0.35298,-1.41667 0.78439,-1.41667 0.43142,0 1.58186,-1.35 2.55654,-3 1.65285,-2.79805 2.17223,-3 7.71561,-3 4.61641,0 5.94346,0.33492 5.94346,1.5 0,0.825 0.45,1.5 1,1.5 0.55,0 1,0.47149 1,1.04775 0,0.57626 1.2059,2.16534 2.67979,3.53129 l 2.67978,2.48355 0.16038,24.47553 c 0.0882,13.46155 0.4573,24.772471 0.82021,25.135381 0.36291,0.36291 0.65984,7.78484 0.65984,16.49317 v 15.83333 h 4.5 c 2.89989,0 4.5223,-0.44448 4.56271,-1.25 0.0345,-0.6875 0.008,-9.0125 -0.0584,-18.5 -0.11785,-16.78569 -0.0657,-17.25 1.93729,-17.25 1.62044,0 2.0584,-0.63829 2.0584,-3 0,-2.888891 0.16667,-3.000001 4.5,-3.000001 h 4.5 v -7.58333 c 0,-5.62044 0.32355,-7.47635 1.25,-7.17001 0.80637,0.26663 1.35427,2.95799 1.54381,7.58333 l 0.29381,7.17001 h 3.95619 c 3.59135,0 3.95619,0.23919 3.95619,2.593621 0,1.75262 0.64852,2.76321 2,3.11663 1.83999,0.48117 2,1.36402 2,11.03521 v 10.5122 l 5.14507,-0.68252 c 6.69914,-0.88867 12.28419,-3.80037 14.5068,-7.56295 0.97864,-1.6567 2.13232,-3.01219 2.56374,-3.01219 0.43141,0 0.78439,7.2 0.78439,16 0,16.43704 0.24927,17.39382 3.92542,15.06725 1.18838,-0.7521 1.41863,-6.40378 1.38456,-33.98468 -0.0337,-27.311101 0.19734,-33.082571 1.32458,-33.082571 0.89384,0 1.36544,-1.20884 1.36544,-3.5 v -3.5 h 14 14 v -19.63929 -19.63929 l 5.02713,0.59539 c 11.60339,1.37425 23.64189,9.99478 25.93696,18.57295 0.5578,2.08486 0.98087,24.736 1.00131,53.610241 0.0195,27.5 0.32235,52.8125 0.67309,56.25 l 0.6377,6.25 h 4.3619 4.36191 v 9 9 h 3.5 3.5 v -47.5 -47.500001 h 9.5 9.5 v -24.5 -24.5 h 13 13.00001 v 13 13 h 11.5 11.5 v 41.000001 41 h 6.5 6.5 v 38.5 38.5 h 11.5 11.5 v 7.5 7.5 H 530.90289 0.90289611 Z m 50.16325589,-17.25 c 0.195973,-5.3625 0.01161,-9.90093 -0.409701,-10.08541 -0.421308,-0.18448 -0.477209,-0.85948 -0.124225,-1.5 0.352985,-0.64052 -0.626209,0.0526 -2.175987,1.54035 -2.867374,2.75256 -3.172812,3.64828 -4.115244,12.06828 -0.70094,6.26242 -0.03119,7.72678 3.533987,7.72678 h 2.934856 z m -3.663255,-8.25 c 0.995486,-1.1 2.034975,-2 2.309975,-2 0.275,0 -0.314489,0.9 -1.309975,2 -0.995486,1.1 -2.034975,2 -2.309975,2 -0.275,0 0.314489,-0.9 1.309975,-2 z m 14.292008,9.14202 c 0.199955,-5.70803 -0.11529,-8.83869 -1,-9.9309 -1.067876,-1.31834 -1.056578,-1.45327 0.06513,-0.77785 1.05823,0.63721 1.19373,0.29405 0.615219,-1.55804 -0.672962,-2.15446 -2.171331,-3.82007 -3.472357,-3.85992 -0.275,-0.008 -0.44375,1.33469 -0.375,2.98469 0.06875,1.65 0.18125,7.308 0.25,12.57332 0.111522,8.54109 0.313693,9.53727 1.875,9.23894 1.47084,-0.28104 1.796581,-1.66412 2.042008,-8.67024 z m 614.207545,3.63936 c 2.4e-4,-0.39523 -0.67456,-0.45959 -1.49956,-0.14301 -0.825,0.31659 -1.5,0.0775 -1.5,-0.53138 0,-1.54322 -7.71644,-1.4105 -8.31475,0.14301 -0.26477,0.6875 -0.43972,0.34646 -0.38876,-0.75787 0.0776,-1.68262 0.66859,-1.95454 3.64808,-1.67865 1.95548,0.18107 4.68043,-0.13825 6.05543,-0.7096 1.99179,-0.82764 0.8229,-1.01681 -5.75,-0.93055 -7.79191,0.10225 -8.25,0.23 -8.25,2.3008 0,1.20589 0.20618,2.39872 0.45819,2.65072 0.75871,0.75872 15.5409,0.43203 15.54137,-0.34347 z m -14.99956,-1.72236 c 0,-0.51754 0.45,-1.2191 1,-1.55902 0.55,-0.33992 1,0.0835 1,0.94098 0,0.85746 -0.45,1.55902 -1,1.55902 -0.55,0 -1,-0.42344 -1,-0.94098 z m 17.98469,-1.30902 c 0.008,-0.9625 -0.43469,-1.75 -0.98469,-1.75 -0.55,0 -1,0.45 -1,1 0,0.55 -1.0125,1.06128 -2.25,1.13618 l -2.25,0.13618 2.25,0.43337 c 1.25966,0.24262 2.25674,1.17302 2.26531,2.11382 0.0132,1.45044 0.148,1.47514 0.98469,0.18045 0.53316,-0.825 0.97627,-2.2875 0.98469,-3.25 z m 26.68473,2.75 c -0.50975,-1.57323 -7.82697,-1.83584 -8.89377,-0.3192 -0.72888,1.03624 -0.83847,0.99746 -0.51093,-0.1808 0.29443,-1.05913 1.78684,-1.5 5.07775,-1.5 3.16093,0 4.66025,-0.41879 4.65915,-1.30139 -10e-4,-0.93162 -1.50745,-1.24046 -5.30133,-1.08697 -4.92116,0.19909 -5.31381,0.3992 -5.49705,2.80138 -0.19013,2.49266 0.003,2.58698 5.29643,2.58698 3.21185,0 5.35918,-0.41536 5.16975,-1 z M 94.166647,218.35399 c -1.229938,-0.23736 -3.479938,-0.24351 -5,-0.0136 -1.520063,0.22985 -0.51375,0.42406 2.23625,0.43157 2.75,0.007 3.993687,-0.18056 2.76375,-0.41792 z m 32.736243,-0.64393 c 0,-0.67296 -0.9,-1.22357 -2,-1.22357 -1.1,0 -2,0.48281 -2,1.07291 0,0.5901 0.9,1.14071 2,1.22357 1.1,0.0829 2,-0.39995 2,-1.07291 z m 3.09054,0.48471 c 0.69126,1.11063 1.22458,1.13002 2.87895,0.10468 1.19978,-0.74361 2.03051,-0.84589 2.03051,-0.25 0,0.55466 0.92656,1.00847 2.05902,1.00847 1.13246,0 1.7809,-0.45 1.44098,-1 -0.86536,-1.40018 0.84888,-1.25112 2.3,0.2 0.93333,0.93333 1.2,0.93333 1.2,0 0,-0.66 0.47656,-1.2 1.05902,-1.2 0.58246,0 0.7809,0.45 0.44098,1 -0.33992,0.55 0.26038,1 1.33399,1 1.07362,0 2.19233,-0.62619 2.48602,-1.39154 0.69459,-1.81007 -3.92005,-16.17012 -5.11202,-15.90783 -0.50148,0.11035 -0.73938,-0.78965 -0.52868,-2 0.21069,-1.21035 -1.67452,-8.05063 -4.18937,-15.20063 -2.51485,-7.15 -5.29826,-15.475 -6.18536,-18.5 -0.8871,-3.025 -1.92311,-5.85707 -2.30224,-6.2935 -0.37913,-0.43642 -0.76775,8.91263 -0.8636,20.77566 -0.17418,21.5582 -0.17312,21.56961 2.09349,22.48011 1.63127,0.65528 1.79316,0.92875 0.57679,0.97434 -2.24026,0.084 -3.31492,1.95749 -1.92189,3.35052 1.38446,1.38446 1.45709,5.3821 0.11287,6.21287 -0.55,0.33992 -0.96447,1.82898 -0.92105,3.30902 0.0434,1.48004 0.32289,2.07756 0.62105,1.32783 0.45768,-1.15087 0.67423,-1.15087 1.39054,0 z m 6.07487,-5.73354 c -3.25331,-2.27871 -2.60949,-6.53636 1.18926,-7.86476 2.4539,-0.85811 3.12075,-0.66965 4.75,1.34238 2.38188,2.9415 2.36986,3.64454 -0.10467,6.11907 -2.41497,2.41497 -2.91335,2.44942 -5.83459,0.40331 z m 14.33459,5.59669 c -0.33992,-0.55 -1.04148,-1 -1.55902,-1 -0.51754,0 -0.94098,0.45 -0.94098,1 0,0.55 0.70156,1 1.55902,1 0.85746,0 1.2809,-0.45 0.94098,-1 z m 527.57651,-9.25 c 0.0421,-0.6875 0.22726,-2.0375 0.41152,-3 0.29936,-1.56381 -0.63972,-1.74979 -8.82651,-1.74801 l -9.16152,0.002 -0.20974,2.99802 -0.20975,2.99799 h 8.95975 c 6.46032,0 8.98108,-0.3487 9.03625,-1.25 z m -14.07651,-0.73608 c 0.825,-0.54081 3.3,-1.06583 5.5,-1.16671 3.35369,-0.15379 3.03053,-0.29553 -2,-0.87723 l -6,-0.69381 7.25,0.0135 c 6.3803,0.0119 7.25,0.23522 7.25,1.86191 0,1.01664 -0.47656,1.84843 -1.05902,1.84843 -0.58246,0 -0.78509,-0.44322 -0.45029,-0.98494 0.371,-0.60029 -0.58228,-0.79556 -2.44098,-0.5 -9.17254,1.45855 -9.54933,1.4819 -8.04971,0.49886 z m 42,-1.01392 c 0,-2.9697 -0.0556,-3 -5.5,-3 -5.44444,0 -5.5,0.0303 -5.5,3 0,2.9697 0.0556,3 5.5,3 5.44444,0 5.5,-0.0303 5.5,-3 z m -9.08529,0.68529 c 0.45195,-0.45195 2.56853,-0.66901 4.70351,-0.48235 l 3.88178,0.33938 -4.70351,0.48235 c -2.58693,0.26529 -4.33373,0.11257 -3.88178,-0.33938 z m 1.34904,-2.40287 c 1.52006,-0.22986 3.77006,-0.22371 5,0.0136 1.22994,0.23736 -0.0137,0.42542 -2.76375,0.41792 -2.75,-0.008 -3.75631,-0.20172 -2.23625,-0.43157 z m -223.45591,-8.59331 c 2.30259,-0.10401 4.21387,-0.18911 4.2473,-0.18911 0.0334,0 0.65414,-10.8 1.37936,-24 1.09807,-19.98641 1.09319,-28.34805 -0.0292,-50 -1.75617,-33.877491 -1.80105,-31.500001 0.5947,-31.500001 1.11111,0 2,-0.66666 2,-1.5 0,-1.23809 -1.83333,-1.5 -10.5,-1.5 -8.42682,0 -10.5,0.28169 -10.5,1.42668 0,0.78467 0.76915,1.5748 1.70922,1.75584 1.58302,0.30486 1.72557,4.20491 1.93077,52.823321 0.12186,28.87179 0.25271,52.84023 0.29078,53.26321 0.0381,0.42298 1.10903,0.50808 2.37989,0.18911 1.27087,-0.31896 4.1946,-0.66504 6.49718,-0.76905 z m -27.05784,-0.37844 c -0.9625,-0.25152 -2.5375,-0.25152 -3.5,0 -0.9625,0.25153 -0.175,0.45733 1.75,0.45733 1.925,0 2.7125,-0.2058 1.75,-0.45733 z m 10.51375,-0.0146 c -1.22994,-0.23736 -3.47994,-0.24351 -5,-0.0136 -1.52006,0.22985 -0.51375,0.42406 2.23625,0.43157 2.75,0.007 3.99369,-0.18056 2.76375,-0.41792 z m 90.98625,0.0417 c -0.6875,-0.27741 -1.8125,-0.27741 -2.5,0 -0.6875,0.27741 -0.125,0.50439 1.25,0.50439 1.375,0 1.9375,-0.22698 1.25,-0.50439 z m 4.47917,0.0581 c -0.33229,-0.33229 -1.1948,-0.36781 -1.91667,-0.0789 -0.79773,0.31922 -0.56078,0.55618 0.60417,0.60416 1.05416,0.0434 1.64479,-0.19293 1.3125,-0.52522 z m 7.02083,-0.0852 c -0.9625,-0.25152 -2.5375,-0.25152 -3.5,0 -0.9625,0.25153 -0.175,0.45733 1.75,0.45733 1.925,0 2.7125,-0.2058 1.75,-0.45733 z m 101.13169,-2.06067 c 0.10775,2.50466 0.46271,2.75 3.97874,2.75 2.12323,0 5.93824,-0.2848 8.4778,-0.63288 4.08979,-0.56057 4.59499,-0.90335 4.42146,-3 -0.1908,-2.3054 -0.4379,-2.36712 -9.4778,-2.36712 h -9.28189 l 0.11831,3.25 0.11832,3.25 0.76337,-3 0.76337,-3 z m 1.5852,0.94977 c 0.80829,-0.80829 10.35397,-0.71557 9.85153,0.0957 -0.27095,0.4375 -2.69826,0.69482 -5.39401,0.57181 -2.69576,-0.123 -4.70164,-0.42338 -4.45752,-0.6675 z m 11.61206,-1.7831 c 0.048,-1.16495 0.28494,-1.4019 0.60416,-0.60417 0.28887,0.72187 0.25335,1.58437 -0.0789,1.91667 -0.33229,0.33229 -0.56864,-0.25834 -0.52522,-1.3125 z m -9.31104,-1.1414 c 1.79735,-0.22256 4.49735,-0.21797 6,0.0102 1.50265,0.22818 0.0321,0.41027 -3.26791,0.40466 -3.3,-0.006 -4.52944,-0.1923 -2.73209,-0.41486 z m 40.04673,2.97473 c -0.24203,-1.27577 -1.6846,-1.92594 -5.32332,-2.39925 l -4.99132,-0.64925 5.25062,0.14925 c 2.88784,0.0821 5.25034,-0.18825 5.25,-0.60075 -3.4e-4,-0.4125 -2.47562,-0.75 -5.50062,-0.75 -5.44444,0 -5.5,0.0303 -5.5,3 0,2.97448 0.0474,3 5.57332,3 4.76774,0 5.52534,-0.25295 5.24132,-1.75 z m -176.44984,-3 c 0.47475,-1.66306 2.16257,-37.84784 2.11065,-45.25 -0.0381,-5.43511 -1.41132,-35.41593 -2.11144,-46.09871 -0.62169,-9.485911 -0.60128,-9.605981 1.73621,-10.217241 1.68128,-0.43967 2.05559,-0.92824 1.29437,-1.68946 -1.49442,-1.49441 -20.60451,-0.88069 -21.12116,0.67831 -0.21378,0.64509 0.64974,1.32009 1.91894,1.5 l 2.30763,0.3271 0.25919,50.137851 0.25918,50.13785 5.74082,0.9838 c 3.15744,0.54108 6.04799,1.04155 6.42342,1.11214 0.37544,0.0706 0.90742,-0.65914 1.18219,-1.62164 z m -89.63563,-0.85417 c -0.33229,-0.33229 -1.1948,-0.36781 -1.91667,-0.0789 -0.79773,0.31922 -0.56078,0.55618 0.60417,0.60416 1.05416,0.0434 1.64479,-0.19293 1.3125,-0.52522 z m 17.55734,-0.13181 c -2.86742,-0.2013 -7.81742,-0.20315 -11,-0.004 -3.18258,0.19905 -0.83651,0.36376 5.21349,0.36601 6.05,0.002 8.65393,-0.1606 5.78651,-0.36191 z m 38.96349,0.0126 c -1.7875,-0.22182 -4.7125,-0.22182 -6.5,0 -1.7875,0.22183 -0.325,0.40333 3.25,0.40333 3.575,0 5.0375,-0.1815 3.25,-0.40333 z m 60.04159,-0.0159 c -3.41463,-0.19467 -9.26463,-0.19611 -13,-0.003 -3.73538,0.19293 -0.94159,0.35221 6.20841,0.35396 7.15,0.002 10.20621,-0.1561 6.79159,-0.35078 z m -99.5024,-4.9985 c -3.14095,-0.19781 -8.54095,-0.19942 -12,-0.004 -3.45906,0.19583 -0.88919,0.35767 5.71081,0.35965 6.6,0.002 9.43013,-0.15825 6.28919,-0.35606 z m 47.46081,5.8e-4 c -2.8875,-0.202 -7.6125,-0.202 -10.5,0 -2.8875,0.202 -0.525,0.36728 5.25,0.36728 5.775,0 8.1375,-0.16528 5.25,-0.36728 z m 52.04159,-0.002 c -3.41463,-0.19467 -9.26463,-0.19611 -13,-0.003 -3.73538,0.19293 -0.94159,0.35221 6.20841,0.35396 7.15,0.002 10.20621,-0.1561 6.79159,-0.35078 z m 105.78736,-3.5108 c 0.0632,-1 0.17982,-1 0.58333,0 0.35132,0.87066 2.83102,1.19533 8.17105,1.06984 l 7.66667,-0.18016 -7.5,-0.63968 -7.5,-0.63968 6,-0.36925 6,-0.36924 -5.75,-0.36082 c -7.56346,-0.47461 -7.38545,-1.74381 0.25578,-1.82362 4.31299,-0.045 5.99422,0.30555 5.99422,1.25 0,1.75225 1.64568,1.67835 2.32987,-0.10463 0.79664,-2.07602 -1.72755,-2.67349 -10.50347,-2.48615 l -7.8264,0.16707 v 2.86816 c 0,2.73535 1.91428,4.22534 2.07895,1.61816 z m 43.55942,-0.25 c -0.35062,-0.91371 -0.002,-1.5 0.89301,-1.5 0.80774,0 1.46862,-0.70714 1.46862,-1.57143 0,-1.42857 -0.14286,-1.42857 -1.57143,0 -1.60825,1.60826 -8.91709,2.20804 -9.78544,0.80303 -0.26119,-0.42263 1.32627,-0.59664 3.52768,-0.3867 2.20142,0.20994 4.50357,-0.11928 5.11589,-0.7316 0.81773,-0.81773 -0.39997,-1.1133 -4.5867,-1.1133 -5.66667,0 -5.7,0.0175 -5.7,3 0,2.97664 0.0437,3 5.60699,3 4.57315,0 5.50086,-0.27658 5.03138,-1.5 z m -7.37462,-0.21758 c 1.52006,-0.22986 3.77006,-0.22371 5,0.0136 1.22994,0.23736 -0.0137,0.42542 -2.76375,0.41792 -2.75,-0.008 -3.75631,-0.20172 -2.23625,-0.43157 z M 456.19448,181.3186 c -3.41463,-0.19467 -9.26463,-0.19611 -13,-0.003 -3.73538,0.19293 -0.94159,0.35221 6.20841,0.35396 7.15,0.002 10.20621,-0.1561 6.79159,-0.35078 z m 50,0 c -3.41463,-0.19467 -9.26463,-0.19611 -13,-0.003 -3.73538,0.19293 -0.94159,0.35221 6.20841,0.35396 7.15,0.002 10.20621,-0.1561 6.79159,-0.35078 z m 50,0 c -3.41463,-0.19467 -9.26463,-0.19611 -13,-0.003 -3.73538,0.19293 -0.94159,0.35221 6.20841,0.35396 7.15,0.002 10.20621,-0.1561 6.79159,-0.35078 z m -117.29159,-3.70166 c 0,-0.24254 -0.45,-0.7191 -1,-1.05902 -0.55,-0.33992 -1,-0.14148 -1,0.44098 0,0.58246 0.45,1.05902 1,1.05902 0.55,0 1,-0.19844 1,-0.44098 z m 14.25,-5.29123 c -2.3375,-0.21053 -6.1625,-0.21053 -8.5,0 -2.3375,0.21054 -0.425,0.3828 4.25,0.3828 4.675,0 6.5875,-0.17226 4.25,-0.3828 z m 52.5,-0.007 c -3.1625,-0.19845 -8.3375,-0.19845 -11.5,0 -3.1625,0.19845 -0.575,0.36082 5.75,0.36082 6.325,0 8.9125,-0.16237 5.75,-0.36082 z m 43.53017,0.008 c -2.3209,-0.20972 -6.3709,-0.21222 -9,-0.006 -2.62909,0.20667 -0.73017,0.37827 4.21983,0.38131 4.95,0.003 7.10108,-0.16605 4.78017,-0.37577 z m 126.41783,-2.67478 c -0.1089,-0.6017 -2.673,-1.35586 -5.698,-1.6759 l -5.5,-0.58189 6.25,-0.16811 c 5.82367,-0.15664 6.25,-0.018 6.25,2.03189 0,1.417 0.34425,1.85575 0.96725,1.23275 0.53198,-0.53198 0.73433,-1.85948 0.44967,-2.95 -0.47074,-1.80332 -1.29953,-1.96578 -9.1583,-1.79523 -8.38331,0.18194 -8.65061,0.26142 -8.97292,2.66815 -0.33028,2.46631 -0.28618,2.4802 7.63905,2.40649 5.18881,-0.0483 7.90214,-0.45601 7.77325,-1.16815 z m 32.302,0.35183 c 0,-0.6379 -0.61907,-0.92226 -1.37571,-0.63191 -1.58889,0.60972 -1.68901,-2.33712 -0.12429,-3.65826 0.57602,-0.48636 0.22336,-0.59235 -0.83179,-0.25 -1.00748,0.32688 -3.48248,0.66192 -5.5,0.74452 -3.62258,0.14833 -3.61223,0.1589 0.83179,0.84981 l 4.5,0.69961 -4.67668,0.1502 c -3.68589,0.11837 -4.77724,-0.22056 -5.15139,-1.59981 -0.26109,-0.9625 -0.42855,-0.35549 -0.37213,1.34892 l 0.10259,3.09891 6.29881,0.20392 c 4.22838,0.13688 6.2988,-0.17732 6.2988,-0.95591 z m 1.58853,-3.55024 c -0.80993,-0.87373 -1.27228,-0.88267 -1.80648,-0.0349 -0.39488,0.62664 -0.28238,1.28934 0.25,1.47267 0.53237,0.18334 0.99958,1.08334 1.03824,2 0.0562,1.33168 0.22469,1.27171 0.83852,-0.29839 0.44169,-1.12978 0.30554,-2.46422 -0.32028,-3.13934 z m -257.30202,0.86842 c -2.86742,-0.2013 -7.81742,-0.20315 -11,-0.004 -3.18258,0.19905 -0.83651,0.36376 5.21349,0.36601 6.05,0.002 8.65393,-0.1606 5.78651,-0.36191 z m 53.00508,-0.003 c -3.41463,-0.19467 -9.26463,-0.19611 -13,-0.003 -3.73538,0.19293 -0.94159,0.35221 6.20841,0.35396 7.15,0.002 10.20621,-0.1561 6.79159,-0.35078 z m 50.45841,-0.002 c -3.7125,-0.19241 -9.7875,-0.19241 -13.5,0 -3.7125,0.19241 -0.675,0.34983 6.75,0.34983 7.425,0 10.4625,-0.15742 6.75,-0.34983 z M 455.1894,162.32251 c -2.86742,-0.2013 -7.81742,-0.20315 -11,-0.004 -3.18258,0.19905 -0.83651,0.36376 5.21349,0.36601 6.05,0.002 8.65393,-0.1606 5.78651,-0.36191 z m 50.46349,-0.006 c -3.7125,-0.19241 -9.7875,-0.19241 -13.5,0 -3.7125,0.19241 -0.675,0.34983 6.75,0.34983 7.425,0 10.4625,-0.15742 6.75,-0.34983 z m 50,0 c -3.7125,-0.19241 -9.7875,-0.19241 -13.5,0 -3.7125,0.19241 -0.675,0.34983 6.75,0.34983 7.425,0 10.4625,-0.15742 6.75,-0.34983 z m 107.8912,-5.76011 c 2.1673,2.1673 9.3588,2.02171 9.3588,-0.18947 0,-1.47465 0.18794,-1.44265 1.4682,0.25 1.4135,1.86882 1.46938,1.8448 1.5,-0.64477 0.0305,-2.48189 -0.21664,-2.59487 -6.14455,-2.80878 -3.39699,-0.12259 -6.43449,-0.24972 -6.75,-0.28252 -2.26459,-0.23544 -2.8968,0.48343 -2.57433,2.9272 0.50563,3.83181 0.70873,4.084 1.20663,1.49834 0.38562,-2.00258 0.5997,-2.08555 1.93525,-0.75 z m 14.53355,-2.85087 c -0.90688,-1.87368 -1.04414,-1.6375 -1.07666,1.85253 -0.031,3.32788 0.14364,3.68872 1.03938,2.14747 0.75171,-1.29339 0.76296,-2.50067 0.0373,-4 z m -223.92475,3.61199 c -3.4375,-0.19527 -9.0625,-0.19527 -12.5,0 -3.4375,0.19527 -0.625,0.35504 6.25,0.35504 6.875,0 9.6875,-0.15977 6.25,-0.35504 z m 51.04159,0.001 c -3.41463,-0.19467 -9.26463,-0.19611 -13,-0.003 -3.73538,0.19293 -0.94159,0.35221 6.20841,0.35396 7.15,0.002 10.20621,-0.1561 6.79159,-0.35078 z m 50.45841,-0.002 c -3.7125,-0.19241 -9.7875,-0.19241 -13.5,0 -3.7125,0.19241 -0.675,0.34983 6.75,0.34983 7.425,0 10.4625,-0.15742 6.75,-0.34983 z m 149.96025,-1.2586 c -0.28766,-1.1 -0.11514,-2 0.38337,-2 0.49851,0 0.93801,1.0125 0.97667,2.25 0.0671,2.1469 0.10966,2.15836 0.92971,0.25 l 0.85943,-2 0.14057,2 0.14057,2 0.79133,-2 c 0.43523,-1.1 0.54602,-2.65225 0.24619,-3.44944 -0.29982,-0.79719 -0.68709,-1.02219 -0.8606,-0.5 -0.17351,0.52219 -3.46593,0.87431 -7.31648,0.78248 -6.78299,-0.16176 -7.00101,-0.0917 -7.00101,2.25 0,2.26907 0.34368,2.41696 5.61663,2.41696 5.1243,0 5.57079,-0.17531 5.09362,-2 z m -252.92673,-3.73367 c -2.59406,-0.20525 -7.09406,-0.20738 -10,-0.005 -2.90594,0.20264 -0.78352,0.37057 4.71648,0.37317 5.5,0.003 7.87758,-0.16319 5.28352,-0.36844 z m 53.50807,-0.006 c -3.41463,-0.19467 -9.26463,-0.19611 -13,-0.003 -3.73538,0.19293 -0.94159,0.35221 6.20841,0.35396 7.15,0.002 10.20621,-0.1561 6.79159,-0.35078 z m 49.45841,-0.002 c -3.7125,-0.19241 -9.7875,-0.19241 -13.5,0 -3.7125,0.19241 -0.675,0.34983 6.75,0.34983 7.425,0 10.4625,-0.15742 6.75,-0.34983 z m 108.50902,-8.25833 c 0.47246,0 0.5809,0.45 0.24098,1 -0.37245,0.60264 0.96235,1 3.3592,1 4.90718,0 7.1408,-0.80117 7.1408,-2.5613 0,-0.96214 -1.92973,-1.44733 -6.75,-1.69715 l -6.75,-0.34983 7.25,-0.19586 c 7.16228,-0.19349 7.25,-0.1649 7.25,2.36316 0,1.47875 0.42903,2.29386 1.01631,1.9309 0.55897,-0.34546 0.75742,-1.04702 0.44098,-1.55902 -0.31643,-0.51199 -0.11289,-0.9309 0.45231,-0.9309 0.5652,0 0.76861,-0.675 0.45203,-1.5 -0.45089,-1.17499 -2.46905,-1.5 -9.31419,-1.5 h -8.73858 l 0.24638,2.75 c 0.34339,3.83283 0.31067,3.78409 1.64476,2.45 0.66,-0.66 1.58656,-1.2 2.05902,-1.2 z m 32.72567,0.8225 c 0.0112,0.96922 1.55131,1.25964 5.76531,1.08717 7.10935,-0.29097 8.98389,-0.82908 7.08385,-2.03352 -0.99872,-0.63309 -1.01979,-0.84937 -0.0838,-0.86084 0.6875,-0.008 1.25,-0.69031 1.25,-1.51531 0,-1.21127 -1.39551,-1.46678 -7.25,-1.3274 l -7.25,0.1726 6.5,0.6548 6.5,0.6548 -6.66667,0.1726 c -4.53519,0.11742 -6.82793,-0.22705 -7.17105,-1.0774 -0.27741,-0.6875 -0.53302,0.325 -0.56802,2.25 -0.0475,2.61046 0.18274,3.11877 0.90574,2 0.71696,-1.10941 0.97336,-1.15563 0.98469,-0.1775 z m 8.01531,-0.88152 c 0,-0.58246 0.45,-0.7809 1,-0.44098 0.55,0.33992 1,0.81648 1,1.05902 0,0.24254 -0.45,0.44098 -1,0.44098 -0.55,0 -1,-0.47656 -1,-1.05902 z m -250.70841,-5.6803 c -3.41463,-0.19467 -9.26463,-0.19611 -13,-0.003 -3.73538,0.19293 -0.94159,0.35221 6.20841,0.35396 7.15,0.002 10.20621,-0.1561 6.79159,-0.35078 z m 50.91466,-0.004 c -4.01156,-0.1903 -10.31156,-0.18902 -14,0.003 -3.68844,0.19185 -0.40625,0.34755 7.29375,0.34599 7.7,-0.002 10.71781,-0.15853 6.70625,-0.34883 z m 50.04375,0.003 c -3.4375,-0.19527 -9.0625,-0.19527 -12.5,0 -3.4375,0.19527 -0.625,0.35504 6.25,0.35504 6.875,0 9.6875,-0.15977 6.25,-0.35504 z m -98.95841,-4.99892 c -3.41463,-0.19467 -9.26463,-0.19611 -13,-0.003 -3.73538,0.19293 -0.94159,0.35221 6.20841,0.35396 7.15,0.002 10.20621,-0.1561 6.79159,-0.35078 z m 47.91466,-0.004 c -4.01156,-0.1903 -10.31156,-0.18902 -14,0.003 -3.68844,0.19185 -0.40625,0.34755 7.29375,0.34599 7.7,-0.002 10.71781,-0.15853 6.70625,-0.34883 z m 51.04375,8.8e-4 c -3.9875,-0.18981 -10.5125,-0.18981 -14.5,0 -3.9875,0.18982 -0.725,0.34512 7.25,0.34512 7.975,0 11.2375,-0.1553 7.25,-0.34512 z m 121.5,-1.08461 c 1.52571,-0.11723 2.25,-0.8167 2.25,-2.17288 0,-1.1 -0.45,-2 -1,-2 -0.55,0 -0.8875,0.50625 -0.75,1.125 0.1375,0.61875 -0.27709,1.31945 -0.92131,1.5571 -0.75172,0.27732 -0.97861,-0.30481 -0.63337,-1.625 0.49962,-1.91056 0.10221,-2.0571 -5.57869,-2.0571 -5.63615,0 -6.12733,0.17674 -6.25281,2.25 l -0.13618,2.25 -0.43337,-2.25 c -0.61487,-3.19232 -2.8274,-2.79407 -3.08258,0.55486 l -0.21372,2.80486 7.25101,-0.13197 c 3.98806,-0.0726 8.26352,-0.20978 9.50102,-0.30487 z m -11.25,-0.67935 c 2.28577,-0.79677 8.32228,-1.015 7.87084,-0.28454 -0.26888,0.43506 -2.37482,0.75548 -4.67986,0.71206 -2.30504,-0.0434 -3.74098,-0.2358 -3.19098,-0.42752 z m 1.75,-3.20978 c 1.5125,-0.22913 3.9875,-0.22913 5.5,0 1.5125,0.22912 0.275,0.41659 -2.75,0.41659 -3.025,0 -4.2625,-0.18747 -2.75,-0.41659 z m 43.43464,1.67145 c 0.10918,-1.45171 -0.023,-1.73994 -0.32332,-0.7052 -0.5312,1.82987 -4.36132,2.48852 -4.36132,0.74985 0,-0.55 -2.1375,-1.06759 -4.75,-1.15019 l -4.75,-0.1502 4.5,-0.72996 4.5,-0.72996 -5.05022,0.0498 c -4.8396,0.0477 -5.0594,0.17041 -5.27067,2.94303 l -0.22046,2.89329 7.77067,-0.35768 c 7.42683,-0.34185 7.77885,-0.46632 7.95532,-2.81288 z m -14.05548,1.25379 c -0.26888,-0.43506 1.16707,-0.62744 3.19099,-0.42752 5.53417,0.54664 6.19307,1.05097 1.48887,1.13958 -2.30504,0.0434 -4.41098,-0.277 -4.67986,-0.71206 z m 11.57084,-3.40914 c -0.64167,-0.64167 -1.49863,-0.8347 -1.90437,-0.42896 -0.40574,0.40574 -0.0888,1.13877 0.70437,1.62896 1.86759,1.15423 2.71091,0.31091 1.2,-1.2 z m -268.93097,0.54406 c -0.67703,-0.27392 -2.02703,-0.29059 -3,-0.037 -0.97297,0.25354 -0.41903,0.47766 1.23097,0.49804 1.65,0.0204 2.44606,-0.18706 1.76903,-0.46099 z m 18.01748,-0.08 c -2.86742,-0.2013 -7.81742,-0.20315 -11,-0.004 -3.18258,0.19905 -0.83651,0.36376 5.21349,0.36601 6.05,0.002 8.65393,-0.1606 5.78651,-0.36191 z m 29.44266,0.13181 c -0.33229,-0.33229 -1.1948,-0.36781 -1.91667,-0.0789 -0.79773,0.31922 -0.56078,0.55618 0.60417,0.60416 1.05416,0.0434 1.64479,-0.19292 1.3125,-0.52522 z m 15.02083,-0.13091 c -2.6125,-0.206 -6.8875,-0.206 -9.5,0 -2.6125,0.206 -0.475,0.37454 4.75,0.37454 5.225,0 7.3625,-0.16854 4.75,-0.37454 z m 9.51903,0.0791 c -0.67703,-0.27392 -2.02703,-0.29059 -3,-0.037 -0.97297,0.25354 -0.41903,0.47766 1.23097,0.49804 1.65,0.0204 2.44606,-0.18706 1.76903,-0.46099 z m 43.98097,-0.0866 c -3.9875,-0.18981 -10.5125,-0.18981 -14.5,0 -3.9875,0.18982 -0.725,0.34512 7.25,0.34512 7.975,0 11.2375,-0.1553 7.25,-0.34512 z m -116.5,-4.94682 c -0.9625,-0.25152 -2.5375,-0.25152 -3.5,0 -0.9625,0.25153 -0.175,0.45733 1.75,0.45733 1.925,0 2.7125,-0.2058 1.75,-0.45733 z m 18.53651,-0.0466 c -2.86742,-0.2013 -7.81742,-0.20315 -11,-0.004 -3.18258,0.19905 -0.83651,0.36376 5.21349,0.36601 6.05,0.002 8.65393,-0.1606 5.78651,-0.36191 z m 43.96349,-0.001 c -2.8875,-0.202 -7.6125,-0.202 -10.5,0 -2.8875,0.202 -0.525,0.36728 5.25,0.36728 5.775,0 8.1375,-0.16528 5.25,-0.36728 z m 10.01903,0.0813 c -0.67703,-0.27392 -2.02703,-0.29059 -3,-0.037 -0.97297,0.25354 -0.41903,0.47766 1.23097,0.49804 1.65,0.0204 2.44606,-0.18706 1.76903,-0.46099 z m 43.98097,-0.0866 c -3.9875,-0.18981 -10.5125,-0.18981 -14.5,0 -3.9875,0.18982 -0.725,0.34512 7.25,0.34512 7.975,0 11.2375,-0.1553 7.25,-0.34512 z m 115.47505,-5.25774 c -0.1622,-2.15325 -1.71498,-2.82241 -1.74036,-0.75 -0.0104,0.84652 -0.31561,0.77517 -0.94563,-0.22104 -0.51167,-0.80907 -1.20121,-1.20014 -1.53231,-0.86904 -0.68691,0.68691 2.18908,3.84008 3.50253,3.84008 0.47653,0 0.79863,-0.9 0.71577,-2 z m 3.96543,-0.45238 c -1.92558,-1.92557 -2.69048,-1.95996 -2.69048,-0.12094 0,0.78467 0.7875,1.60184 1.75,1.81593 2.47024,0.54946 2.72528,0.0898 0.94048,-1.69499 z m 3.30952,-0.0476 c 0,-0.825 -0.69274,-1.5 -1.53943,-1.5 -1.2719,0 -1.31534,0.25407 -0.25,1.46197 1.63918,1.8585 1.78943,1.8617 1.78943,0.038 z m -142.27083,-3.10416 c -0.33229,-0.3323 -1.1948,-0.36782 -1.91667,-0.079 -0.79773,0.31922 -0.56078,0.55618 0.60417,0.60416 1.05416,0.0434 1.64479,-0.19293 1.3125,-0.52522 z m -80.43346,-5.13742 c -3.96237,-0.18931 -10.71237,-0.19045 -15,-0.002 -4.28764,0.1879 -1.04571,0.34279 7.20429,0.34419 8.25,10e-4 11.75807,-0.15234 7.79571,-0.34164 z m 50,0 c -3.96237,-0.18931 -10.71237,-0.19045 -15,-0.002 -4.28764,0.1879 -1.04571,0.34279 7.20429,0.34419 8.25,10e-4 11.75807,-0.15234 7.79571,-0.34164 z m 50,0 c -3.96237,-0.18931 -10.71237,-0.19045 -15,-0.002 -4.28764,0.1879 -1.04571,0.34279 7.20429,0.34419 8.25,10e-4 11.75807,-0.15234 7.79571,-0.34164 z m -100,-5 c -3.96237,-0.18931 -10.71237,-0.19045 -15,-0.002 -4.28764,0.1879 -1.04571,0.34279 7.20429,0.34419 8.25,10e-4 11.75807,-0.15234 7.79571,-0.34164 z m 50,0 c -3.96237,-0.18931 -10.71237,-0.19045 -15,-0.002 -4.28764,0.1879 -1.04571,0.34279 7.20429,0.34419 8.25,10e-4 11.75807,-0.15234 7.79571,-0.34164 z m 50,0 c -3.96237,-0.18931 -10.71237,-0.19045 -15,-0.002 -4.28764,0.1879 -1.04571,0.34279 7.20429,0.34419 8.25,10e-4 11.75807,-0.15234 7.79571,-0.34164 z m -100,-5.000001 c -3.96237,-0.18931 -10.71237,-0.19045 -15,-0.002 -4.28764,0.1879 -1.04571,0.34279 7.20429,0.34419 8.25,0.001 11.75807,-0.15234 7.79571,-0.34164 z m 50,0 c -3.96237,-0.18931 -10.71237,-0.19045 -15,-0.002 -4.28764,0.1879 -1.04571,0.34279 7.20429,0.34419 8.25,0.001 11.75807,-0.15234 7.79571,-0.34164 z m 50,0 c -3.96237,-0.18931 -10.71237,-0.19045 -15,-0.002 -4.28764,0.1879 -1.04571,0.34279 7.20429,0.34419 8.25,0.001 11.75807,-0.15234 7.79571,-0.34164 z m -116.04571,-4.9207 c -0.6875,-0.27741 -1.8125,-0.27741 -2.5,0 -0.6875,0.27741 -0.125,0.50439 1.25,0.50439 1.375,0 1.9375,-0.22698 1.25,-0.50439 z m 18.03651,-0.0737 c -2.86742,-0.2013 -7.81742,-0.20315 -11,-0.004 -3.18258,0.19905 -0.83651,0.36376 5.21349,0.36601 6.05,0.002 8.65393,-0.1606 5.78651,-0.36191 z m 45.00508,-0.003 c -3.41463,-0.19468 -9.26463,-0.19611 -13,-0.003 -3.73538,0.19293 -0.94159,0.35221 6.20841,0.35396 7.15,0.002 10.20621,-0.1561 6.79159,-0.35078 z m 46.99492,0.003 c -2.86742,-0.2013 -7.81742,-0.20315 -11,-0.004 -3.18258,0.19905 -0.83651,0.36376 5.21349,0.36601 6.05,0.002 8.65393,-0.1606 5.78651,-0.36191 z m 11.96349,0.0737 c -0.6875,-0.27741 -1.8125,-0.27741 -2.5,0 -0.6875,0.27741 -0.125,0.50439 1.25,0.50439 1.375,0 1.9375,-0.22698 1.25,-0.50439 z M 108.55788,212.22918 c -2.22503,-2.45863 -2.09163,-5.86721 0.27927,-7.13608 2.74304,-1.46803 3.79724,-1.30368 6.04306,0.94214 2.12637,2.12637 1.82512,4.65096 -0.80819,6.77268 -2.13356,1.71907 -3.5712,1.56818 -5.51414,-0.57874 z M 42.9347,207.49905 c -0.01749,-0.58238 0.628885,-1.93238 1.436394,-3 0.807508,-1.06762 1.482508,-1.46464 1.5,-0.88226 0.01749,0.58238 -0.628885,1.93238 -1.436394,3 -0.807508,1.06762 -1.482508,1.46464 -1.5,0.88226 z m 279.49387,-4.39147 c -0.83912,-1.62269 -1.52568,-4.54769 -1.52568,-6.5 0,-3.2774 -0.2301,-3.54966 -3,-3.54966 -2.2907,0 -3,-0.45353 -3,-1.91821 0,-3.95909 1.11523,-5.08179 5.04797,-5.08179 4.03799,0 4.80488,0.64883 6.5008,5.5 0.57682,1.65 1.58932,2.8875 2.25,2.75 1.67295,-0.34817 1.49824,2.96724 -0.40735,7.72976 -1.90833,4.76939 -3.77646,5.11013 -5.86574,1.0699 z m 17.94962,-2.29966 c -0.80219,-4.86697 -2.39368,-8.44716 -2.44489,-5.5 -0.0231,1.32754 -0.87533,1.75 -3.53041,1.75 -2.44444,0 -3.5,-0.45238 -3.5,-1.5 0,-1 1,-1.5 3,-1.5 1.65,0 3,-0.45 3,-1 0,-0.55 2.025,-1 4.5,-1 2.475,0 4.5,0.42883 4.5,0.95295 0,0.52412 1.0125,0.91048 2.25,0.85859 3.63599,-0.15247 4.75,0.12626 4.75,1.18846 0,0.55 -1.125,1 -2.5,1 -1.375,0 -2.5,0.52002 -2.5,1.15561 0,1.48774 -4.83207,7.84439 -5.96299,7.84439 -0.47367,0 -1.17644,-1.9125 -1.56171,-4.25 z m -226.6628,1.56689 c 0.72187,-0.28887 1.58437,-0.25335 1.91667,0.0789 0.33229,0.33229 -0.25834,0.56864 -1.3125,0.52522 -1.16495,-0.048 -1.4019,-0.28494 -0.60417,-0.60416 z m -52.940048,-2.06689 c -1.243871,-1.58606 -1.208501,-1.62143 0.377555,-0.37756 0.9625,0.75485 1.75,1.54235 1.75,1.75 0,0.82304 -0.821186,0.29331 -2.127555,-1.37244 z m 6.691848,0.45687 c 0.375531,-0.98622 0.934692,-1.54122 1.242579,-1.23333 0.307887,0.30789 6.34e-4,1.11479 -0.682784,1.79313 -0.987616,0.98026 -1.10248,0.8654 -0.559795,-0.5598 z m 15.887688,-1.13981 c -1.882317,-2.87278 -0.715699,-6.0312 2.618621,-7.08947 4.560116,-1.44732 8.181821,6.24658 3.995139,8.48723 -3.036162,1.6249 -4.889938,1.23312 -6.61376,-1.39776 z m 76.203002,0.6042 c -2.21036,-2.44241 -2.08579,-4.47141 0.41335,-6.73311 1.88835,-1.70893 2.3017,-1.74126 4.75,-0.37156 3.18253,1.78046 3.92584,5.04637 1.66345,7.30876 -2.13767,2.13767 -4.779,2.05871 -6.8268,-0.20409 z m 193.91593,-0.84705 c -0.65014,-1.69424 0.89146,-3.28122 3.21426,-3.3089 0.96351,-0.0115 1.02474,0.47135 0.24463,1.929 -1.49836,2.7997 -2.72611,3.2895 -3.45889,1.3799 z m -251.57092,-0.32421 c -0.90129,-0.58246 -1.02463,-0.97549 -0.30902,-0.98469 0.65504,-0.008 1.4691,0.43469 1.80902,0.98469 0.7673,1.24153 0.42112,1.24153 -1.5,0 z m 44,0 c 0,-0.55 0.47656,-1 1.05902,-1 0.58246,0 0.7809,0.45 0.44098,1 -0.33992,0.55 -0.81648,1 -1.05902,1 -0.24254,0 -0.44098,-0.45 -0.44098,-1 z m 4,-1.34981 c 0,-0.23109 1.18041,-1.1936 2.62312,-2.13891 1.44272,-0.9453 2.31766,-1.22448 1.94431,-0.62038 -0.71346,1.15439 -4.56743,3.48267 -4.56743,2.75929 z m 162.63837,-2.15019 c -0.45206,-1.17805 0.2762,-1.5 3.39301,-1.5 2.861,0 3.96862,0.41864 3.96862,1.5 0,1.03861 -1.04367,1.5 -3.39301,1.5 -2.09352,0 -3.61346,-0.57449 -3.96862,-1.5 z M 95.409974,195.06937 c -0.35034,-0.56686 0.0511,-0.7345 0.94098,-0.39301 1.73242,0.66479 2.04939,1.38156 0.61096,1.38156 -0.51754,0 -1.21591,-0.44485 -1.55194,-0.98855 z m -5.007077,-3.63624 c -1.798106,-1.53011 -2.165788,-2.13852 -0.917756,-1.51863 1.833045,0.91045 5.271223,4.20218 4.290201,4.10746 -0.204845,-0.0198 -1.722445,-1.18476 -3.372445,-2.58883 z m -16.3,-0.57521 c -2.83478,-2.83478 -0.68474,-7.8 3.377555,-7.8 4.100204,0 6.379305,6.11448 3.069385,8.23469 -1.760124,1.12747 -5.110696,0.90155 -6.44694,-0.43469 z m 84.799993,0.88709 c 0,-0.1721 1.4625,-1.6346 3.25,-3.25 l 3.25,-2.93709 -2.93709,3.25 c -2.73778,3.02946 -3.56291,3.70965 -3.56291,2.93709 z m -74.595005,-5.93709 -1.904988,-2.25 2.25,1.90499 c 2.114445,1.79022 2.705241,2.59501 1.904988,2.59501 -0.189757,0 -1.202257,-1.0125 -2.25,-2.25 z m -23.404988,-1.14301 c 0,-0.21616 0.698372,-0.661 1.551938,-0.98855 0.889925,-0.34149 1.291322,-0.17385 0.940983,0.39301 -0.587258,0.95021 -2.492921,1.40545 -2.492921,0.59554 z m 6.75,-4.68709 c -2.533693,-1.47574 -2.294127,-6.55832 0.376493,-7.9876 3.338686,-1.78681 6.873507,0.27596 6.873507,4.01108 0,4.16594 -3.566365,6.12204 -7.25,3.97652 z m 108.904983,-0.74864 c -2.34009,-2.58577 -2.05561,-4.86266 0.84501,-6.76322 2.31587,-1.51741 2.68413,-1.51741 5,0 2.95321,1.93502 3.21451,4.63536 0.67126,6.93697 -2.37688,2.15105 -4.46269,2.09544 -6.51627,-0.17375 z m -4.0907,-4.46439 c 0.37553,-0.98622 0.93469,-1.54122 1.24258,-1.23333 0.30789,0.30789 6.4e-4,1.11479 -0.68278,1.79313 -0.98762,0.98026 -1.10248,0.8654 -0.5598,-0.5598 z m -109.992854,-8.2783 c -2.281904,-2.2819 -1.927867,-5.14892 0.861513,-6.97659 4.59605,-3.01145 9.661995,2.57566 6.002203,6.61968 -2.114569,2.33658 -4.747159,2.47347 -6.863716,0.35691 z m 119.178564,0.49133 c -2.65273,-1.54507 -2.31857,-6.77266 0.5,-7.82205 3.33926,-1.24324 6.20045,0.20231 6.57226,3.32049 0.5602,4.69815 -2.9255,6.91683 -7.07226,4.50156 z M 62.152897,153.99502 c -2.695822,-1.04556 -3.121338,-5.96906 -0.690253,-7.98669 2.629005,-2.18188 6.940253,-0.0377 6.940253,3.4517 0,3.57744 -3.037042,5.78112 -6.25,4.53499 z m 121.740643,-0.24994 c -3.00185,-1.49116 -3.69916,-4.83579 -1.47244,-7.06251 3.19587,-3.19587 8.93537,-0.67742 8.28501,3.6354 -0.48863,3.24026 -3.81752,4.91489 -6.81257,3.42711 z M 70.981844,144.47459 c 0.04798,-1.16495 0.284941,-1.4019 0.604167,-0.60417 0.288871,0.72187 0.253344,1.58438 -0.07895,1.91667 -0.332292,0.33229 -0.568641,-0.25834 -0.52522,-1.3125 z m 106.999996,-4 c 0.048,-1.16495 0.28494,-1.4019 0.60416,-0.60417 0.28887,0.72187 0.25335,1.58437 -0.0789,1.91667 -0.3323,0.33229 -0.56864,-0.25834 -0.52522,-1.3125 z M 62.557885,139.22918 c -2.268202,-2.50633 -2.074496,-4.76402 0.567518,-6.61456 2.860157,-2.00333 3.369984,-1.96421 5.777494,0.4433 2.407719,2.40772 2.535325,4.32182 0.428571,6.42857 -2.087907,2.08791 -4.742447,1.98707 -6.773583,-0.25731 z m 119.095005,0.74864 c -2.39082,-1.39252 -2.257,-6.12218 0.21693,-7.66718 3.12501,-1.9516 7.03307,0.006 7.03307,3.52253 0,4.64934 -3.22153,6.49102 -7.25,4.14465 z M 71.981844,138.47459 c 0.04798,-1.16495 0.284941,-1.4019 0.604167,-0.60417 0.288871,0.72187 0.253344,1.58437 -0.07895,1.91667 -0.332292,0.33229 -0.568641,-0.25834 -0.52522,-1.3125 z m 103.999996,-5 c 0.048,-1.16495 0.28494,-1.4019 0.60416,-0.60417 0.28887,0.72187 0.25335,1.58437 -0.0789,1.91667 -0.3323,0.33229 -0.56864,-0.25834 -0.52522,-1.3125 z m -100.51465,-5.7098 c 0.375531,-0.98622 0.934692,-1.54122 1.242579,-1.23333 0.307887,0.30789 6.34e-4,1.11479 -0.682784,1.79313 -0.987616,0.98026 -1.10248,0.8654 -0.559795,-0.5598 z m -8.364293,-0.90687 c -0.66,-0.66 -1.2,-2.45143 -1.2,-3.98095 0,-5.12724 8.065098,-5.04673 8.826764,0.0881 0.62781,4.23245 -4.612436,6.90716 -7.626764,3.89283 z m 108.732293,-0.92649 c -1.78681,-3.33869 0.27596,-6.87351 4.01108,-6.87351 4.4493,0 6.51366,4.4001 3.48519,7.42857 -2.25979,2.2598 -6.14371,1.97221 -7.49627,-0.55506 z m -96.932293,-4.87351 c 0.588702,-1.1 1.295368,-2 1.570368,-2 0.275,0 0.01833,0.9 -0.570368,2 -0.588702,1.1 -1.295368,2 -1.570368,2 -0.275,0 -0.01833,-0.9 0.570368,-2 z m 3.031803,-3.55887 c 0.01749,-0.51762 0.692492,-1.81464 1.5,-2.88226 0.807509,-1.06762 1.453885,-1.51762 1.436394,-1 -0.01749,0.51762 -0.692492,1.81464 -1.5,2.88226 -0.807509,1.06762 -1.453885,1.51762 -1.436394,1 z m -6.952287,-2.09799 c -2.402247,-1.6826 -2.738647,-5.55122 -0.634558,-7.29746 3.840261,-3.18713 9.955592,2.21238 7.20222,6.35918 -1.630499,2.45566 -3.931892,2.78445 -6.567662,0.93828 z m 93.905357,-0.87138 c -2.82147,-5.27197 3.46954,-10.09869 7.18384,-5.51173 2.17695,2.68843 2.22109,3.12462 0.54768,5.41314 -1.98557,2.71543 -6.30157,2.77047 -7.73152,0.0986 z m -5.95592,-2.4327 c -0.80907,-0.51167 -1.2107,-1.19065 -0.8925,-1.50885 0.3182,-0.3182 1.14776,0.10734 1.84348,0.94563 1.4426,1.73821 1.16599,1.90204 -0.95098,0.56322 z m -74.528953,-2.03906 c 0.995486,-1.1 2.034975,-2 2.309975,-2 0.275,0 -0.314489,0.9 -1.309975,2 -0.995486,1.1 -2.034975,2 -2.309975,2 -0.275,0 0.314489,-0.9 1.309975,-2 z m -5.048019,-5.43294 c -2.943708,-4.49267 2.030196,-9.018911 6.483327,-5.899821 2.610222,1.828271 2.683556,5.931191 0.130433,7.297581 -3.036162,1.6249 -4.889938,1.23312 -6.61376,-1.39776 z m 76.044332,0.42888 c -3.65919,-4.04337 1.90035,-9.507681 6.43899,-6.328701 2.5535,1.788541 2.64909,4.493921 0.23595,6.677771 -2.42562,2.19516 -4.46915,2.08829 -6.67494,-0.34907 z m -59.762976,-3.12003 c 0.678326,-0.68341 1.485226,-0.99067 1.793116,-0.68278 0.30789,0.30789 -0.24711,0.86705 -1.23333,1.24258 -1.425196,0.54268 -1.540056,0.42782 -0.559786,-0.5598 z m 49.266656,0.12409 c -0.90129,-0.58246 -1.02463,-0.97548 -0.30902,-0.98468 0.65504,-0.008 1.4691,0.43468 1.80902,0.98468 0.7673,1.24153 0.42112,1.24153 -1.5,0 z m -4,-2 c -0.90129,-0.582461 -1.02463,-0.975481 -0.30902,-0.984681 0.65504,-0.008 1.4691,0.43468 1.80902,0.984681 0.7673,1.24153 0.42112,1.24153 -1.5,0 z M 95.557884,98.229179 c -0.91024,-1.00581 -1.654987,-2.54866 -1.654987,-3.42857 0,-1.98584 2.657297,-4.74269 4.571427,-4.74269 1.630936,0 5.428566,3.49782 5.428566,5 0,1.46438 -3.77959,5.000001 -5.345006,5.000001 -0.73976,0 -2.08976,-0.822931 -3,-1.828741 z m 53.095006,0.74864 c -2.17563,-1.26719 -2.27253,-5.25451 -0.17857,-7.34847 3.0065,-3.0065 7.42857,-0.96555 7.42857,3.42857 0,4.10882 -3.59161,6.050721 -7.25,3.9199 z m -10.9375,-1.60301 c 0.72187,-0.28887 1.58437,-0.25335 1.91667,0.079 0.33229,0.33229 -0.25834,0.56864 -1.3125,0.52522 -1.16495,-0.048 -1.4019,-0.28494 -0.60417,-0.60417 z m -7,-1 c 0.72187,-0.28887 1.58437,-0.25335 1.91667,0.079 0.33229,0.33229 -0.25834,0.56864 -1.3125,0.52522 -1.16495,-0.048 -1.4019,-0.28494 -0.60417,-0.60417 z m -22.6125,-2.51689 c -1.64219,-1.64218 -1.50959,-5.29817 0.24496,-6.75432 3.58845,-2.97815 9.20195,1.29582 7.49214,5.70432 -0.9752,2.5144 -5.63969,3.14741 -7.7371,1.05 z m 27,0 c -2.78825,-2.78825 -0.69002,-7.81412 3.25,-7.78468 3.2025,0.0239 4.8,1.51647 4.8,4.48468 0,4.08592 -5.15206,6.19794 -8.05,3.3 z m -13.69963,-2.15909 c -1.76402,-2.69223 -1.13979,-5.22833 1.65505,-6.72409 4.66379,-2.49598 8.8859,3.17007 5.30811,7.12348 -2.37761,2.62723 -5.08167,2.47213 -6.96316,-0.39939 z"
       id="path1"
       inkscape:export-filename="Singapore_4.svg"
       inkscape:export-xdpi="96"
       inkscape:export-ydpi="96" />
  </g>
</svg>
