<?xml version="1.0" encoding="UTF-8" standalone="no"?>
<svg
   id="Layer_1"
   data-name="Layer 1"
   viewBox="0 0 1.40625 1.40625"
   width="30"
   height="30"
   version="1.1"
   sodipodi:docname="badge-dollar_7661360.svg"
   inkscape:version="1.3.2 (091e20e, 2023-11-25, custom)"
   xmlns:inkscape="http://www.inkscape.org/namespaces/inkscape"
   xmlns:sodipodi="http://sodipodi.sourceforge.net/DTD/sodipodi-0.dtd"
   xmlns="http://www.w3.org/2000/svg"
   xmlns:svg="http://www.w3.org/2000/svg">
  <defs
     id="defs1" />
  <sodipodi:namedview
     id="namedview1"
     pagecolor="#ffffff"
     bordercolor="#000000"
     borderopacity="0.25"
     inkscape:showpageshadow="2"
     inkscape:pageopacity="0.0"
     inkscape:pagecheckerboard="0"
     inkscape:deskcolor="#d1d1d1"
     inkscape:zoom="8.0078125"
     inkscape:cx="31.094634"
     inkscape:cy="19.418537"
     inkscape:window-width="2400"
     inkscape:window-height="1271"
     inkscape:window-x="-9"
     inkscape:window-y="-9"
     inkscape:window-maximized="1"
     inkscape:current-layer="Layer_1" />
  <path
     d="m 1.40625,0.7086882 c 0,-0.0985805 -0.049988,-0.18547785 -0.1260157,-0.23674437 0.017496,-0.089978 -0.0086,-0.18675661 -0.078295,-0.25650698 C 1.1322473,0.14574461 1.0354686,0.11964635 0.94543254,0.13714207 0.89416603,0.06111417 0.80726871,0.0111264 0.7086882,0.0111264 c -0.0985805,0 -0.18547783,0.04998778 -0.23674434,0.12601567 -0.089978,-0.0174958 -0.18681477,0.008603 -0.25650701,0.0782948 -0.0696923,0.0696923 -0.0957905,0.16647088 -0.0782948,0.25650698 -0.0760279,0.0512665 -0.12601567,0.13816385 -0.12601567,0.23674437 0,0.0985805 0.04998778,0.18547785 0.12601567,0.23674434 -0.0174958,0.089978 0.008603,0.18681474 0.0782948,0.25650704 0.0696923,0.069692 0.16647091,0.09579 0.25650701,0.078295 0.0512665,0.076028 0.13816383,0.1260157 0.23674434,0.1260157 0.0985805,0 0.18547783,-0.049988 0.23674434,-0.1260157 0.089978,0.017496 0.18681476,-0.0086 0.25650706,-0.078295 C 1.2716321,1.132247 1.29773,1.0354686 1.2802343,0.94543254 1.3562622,0.89416605 1.40625,0.80726872 1.40625,0.7086882 Z M 0.62992842,0.6366128 0.80668747,0.6660823 c 0.0780042,0.0129619 0.13456006,0.0798061 0.13456006,0.15885647 0,0.0961392 -0.0782367,0.1743759 -0.17437589,0.1743759 V 1.1155653 H 0.65062101 V 0.99931468 c -0.0961392,0 -0.17437589,-0.0782367 -0.17437589,-0.1743759 h 0.11625057 c 0,0.032027 0.0260979,0.0581253 0.058125,0.0581253 h 0.11625064 c 0.032085,0 0.0581257,-0.0260983 0.0581257,-0.0581253 0,-0.0219714 -0.0157522,-0.0405714 -0.0374329,-0.0441752 L 0.61074706,0.75129405 C 0.53280102,0.73833211 0.476187,0.671488 0.476187,0.59243759 c 0,-0.0961393 0.0782367,-0.17437592 0.17437588,-0.17437592 V 0.30181106 h 0.11625064 v 0.11625061 c 0.0961392,0 0.17437588,0.0782367 0.17437588,0.17437592 H 0.82493884 c 0,-0.032027 -0.0260399,-0.0581253 -0.0581257,-0.0581253 H 0.65056253 c -0.032027,0 -0.0581257,0.0260983 -0.0581257,0.0581253 0,0.0219714 0.0157522,0.0405714 0.0374329,0.0441752 z"
     id="path1"
     style="fill:#6cd236;fill-opacity:1;stroke-width:0.0581253" />
</svg>
